<?xml version="1.0" encoding="UTF-8" standalone="no"?>
<svg
   style="fill-opacity:1; color-rendering:auto; color-interpolation:auto; text-rendering:auto; stroke:black; stroke-linecap:square; stroke-miterlimit:10; shape-rendering:auto; stroke-opacity:1; fill:black; stroke-dasharray:none; font-weight:normal; stroke-width:1; font-family:'Dialog'; font-style:normal; stroke-linejoin:miter; font-size:12px; stroke-dashoffset:0; image-rendering:auto;"
   width="560"
   height="420"
   version="1.1"
   id="svg76"
   sodipodi:docname="kham_py_L05_rw0001_H015_mgrp.svg"
   inkscape:version="1.4.2 (unknown)"
   xmlns:inkscape="http://www.inkscape.org/namespaces/inkscape"
   xmlns:sodipodi="http://sodipodi.sourceforge.net/DTD/sodipodi-0.dtd"
   xmlns="http://www.w3.org/2000/svg"
   xmlns:svg="http://www.w3.org/2000/svg">
  <sodipodi:namedview
     id="namedview76"
     pagecolor="#ffffff"
     bordercolor="#000000"
     borderopacity="0.25"
     inkscape:showpageshadow="2"
     inkscape:pageopacity="0.0"
     inkscape:pagecheckerboard="0"
     inkscape:deskcolor="#d1d1d1"
     inkscape:zoom="2.8385286"
     inkscape:cx="288.00133"
     inkscape:cy="146.37866"
     inkscape:window-width="1920"
     inkscape:window-height="1052"
     inkscape:window-x="0"
     inkscape:window-y="0"
     inkscape:window-maximized="1"
     inkscape:current-layer="svg76" />
  <!--Generated by the Batik Graphics2D SVG Generator-->
  <defs
     id="genericDefs" />
  <g
     id="g76">
    <defs
       id="defs1">
      <clipPath
         clipPathUnits="userSpaceOnUse"
         id="clipPath1">
        <path
           d="M0 0 L560 0 L560 420 L0 420 L0 0 Z"
           id="path1" />
      </clipPath>
    </defs>
    <g
       style="fill:white; stroke:white;"
       id="g1">
      <rect
         x="0"
         y="0"
         width="560"
         style="clip-path:url(#clipPath1); stroke:none;"
         height="420"
         clip-path="url(#clipPath1)"
         id="rect1" />
    </g>
    <g
       style="fill:white; text-rendering:optimizeSpeed; color-rendering:optimizeSpeed; image-rendering:optimizeSpeed; shape-rendering:crispEdges; stroke:white; color-interpolation:sRGB;"
       id="g2">
      <rect
         x="0"
         width="560"
         height="420"
         y="0"
         style="stroke:none;"
         id="rect2" />
      <path
         style="stroke:none;"
         d="M73 363 L507 363 L507 31 L73 31 Z"
         id="path2" />
    </g>
    <g
       style="stroke-linecap:butt; fill-opacity:0.149; fill:rgb(38,38,38); text-rendering:geometricPrecision; image-rendering:optimizeQuality; color-rendering:optimizeQuality; stroke-linejoin:round; stroke:rgb(38,38,38); color-interpolation:linearRGB; stroke-width:0.6667; stroke-opacity:0.149;"
       id="g7">
      <line
         y2="31"
         style="fill:none;"
         x1="73"
         x2="73"
         y1="363"
         id="line2" />
      <line
         y2="31"
         style="fill:none;"
         x1="159.8"
         x2="159.8"
         y1="363"
         id="line3" />
      <line
         y2="31"
         style="fill:none;"
         x1="246.6"
         x2="246.6"
         y1="363"
         id="line4" />
      <line
         y2="31"
         style="fill:none;"
         x1="333.4"
         x2="333.4"
         y1="363"
         id="line5" />
      <line
         y2="31"
         style="fill:none;"
         x1="420.2"
         x2="420.2"
         y1="363"
         id="line6" />
      <line
         y2="31"
         style="fill:none;"
         x1="507"
         x2="507"
         y1="363"
         id="line7" />
    </g>
    <g
       style="fill-opacity:0.251; color-rendering:optimizeQuality; color-interpolation:linearRGB; text-rendering:geometricPrecision; stroke:rgb(26,26,26); stroke-linecap:butt; stroke-miterlimit:1; stroke-opacity:0.251; fill:rgb(26,26,26); stroke-dasharray:1,3; stroke-width:0.6667; stroke-linejoin:bevel; image-rendering:optimizeQuality;"
       id="g15">
      <line
         y2="263.058"
         style="fill:none;"
         x1="507"
         x2="73"
         y1="263.058"
         id="line8" />
      <line
         y2="204.5957"
         style="fill:none;"
         x1="507"
         x2="73"
         y1="204.5957"
         id="line9" />
      <line
         y2="163.1161"
         style="fill:none;"
         x1="507"
         x2="73"
         y1="163.1161"
         id="line10" />
      <line
         y2="130.942"
         style="fill:none;"
         x1="507"
         x2="73"
         y1="130.942"
         id="line11" />
      <line
         y2="104.6538"
         style="fill:none;"
         x1="507"
         x2="73"
         y1="104.6538"
         id="line12" />
      <line
         y2="82.4275"
         style="fill:none;"
         x1="507"
         x2="73"
         y1="82.4275"
         id="line13" />
      <line
         y2="63.1741"
         style="fill:none;"
         x1="507"
         x2="73"
         y1="63.1741"
         id="line14" />
      <line
         y2="46.1915"
         style="fill:none;"
         x1="507"
         x2="73"
         y1="46.1915"
         id="line15" />
    </g>
    <g
       style="stroke-linecap:butt; fill-opacity:0.149; fill:rgb(38,38,38); text-rendering:geometricPrecision; image-rendering:optimizeQuality; color-rendering:optimizeQuality; stroke-linejoin:round; stroke:rgb(38,38,38); color-interpolation:linearRGB; stroke-width:0.6667; stroke-opacity:0.149;"
       id="g24">
      <line
         y2="363"
         style="fill:none;"
         x1="507"
         x2="73"
         y1="363"
         id="line16" />
      <line
         y2="31"
         style="fill:none;"
         x1="507"
         x2="73"
         y1="31"
         id="line17" />
      <line
         x1="73"
         x2="507"
         y1="363"
         style="stroke-linecap:square; fill-opacity:1; fill:none; stroke-opacity:1;"
         y2="363"
         id="line18" />
      <line
         x1="73"
         x2="73"
         y1="363"
         style="stroke-linecap:square; fill-opacity:1; fill:none; stroke-opacity:1;"
         y2="358.66"
         id="line19" />
      <line
         x1="159.8"
         x2="159.8"
         y1="363"
         style="stroke-linecap:square; fill-opacity:1; fill:none; stroke-opacity:1;"
         y2="358.66"
         id="line20" />
      <line
         x1="246.6"
         x2="246.6"
         y1="363"
         style="stroke-linecap:square; fill-opacity:1; fill:none; stroke-opacity:1;"
         y2="358.66"
         id="line21" />
      <line
         x1="333.4"
         x2="333.4"
         y1="363"
         style="stroke-linecap:square; fill-opacity:1; fill:none; stroke-opacity:1;"
         y2="358.66"
         id="line22" />
      <line
         x1="420.2"
         x2="420.2"
         y1="363"
         style="stroke-linecap:square; fill-opacity:1; fill:none; stroke-opacity:1;"
         y2="358.66"
         id="line23" />
      <line
         x1="507"
         x2="507"
         y1="363"
         style="stroke-linecap:square; fill-opacity:1; fill:none; stroke-opacity:1;"
         y2="358.66"
         id="line24" />
    </g>
    <g
       transform="translate(73,369.4)"
       style="font-size:18.6667px; fill:rgb(38,38,38); text-rendering:geometricPrecision; image-rendering:optimizeQuality; color-rendering:optimizeQuality; font-family:'SansSerif'; stroke:rgb(38,38,38); color-interpolation:linearRGB;"
       id="g25">
      <path
         style="stroke:none;"
         d="M4.1094 12.2344 Q4.1094 15.5469 2.9609 16.8672 Q1.8125 18.1875 -0.1562 18.1875 Q-2.0625 18.1875 -3.2266 16.9062 Q-4.3906 15.625 -4.4375 12.4375 L-4.4375 10.1719 Q-4.4375 6.8594 -3.2734 5.5859 Q-2.1094 4.3125 -0.1719 4.3125 Q1.7656 4.3125 2.9141 5.5469 Q4.0625 6.7812 4.1094 9.9531 L4.1094 12.2344 ZM2.375 9.875 Q2.375 7.5938 1.7266 6.6484 Q1.0781 5.7031 -0.1719 5.7031 Q-1.375 5.7031 -2.0312 6.625 Q-2.6875 7.5469 -2.7031 9.75 L-2.7031 12.5 Q-2.7031 14.7656 -2.0391 15.7734 Q-1.375 16.7812 -0.1562 16.7812 Q1.0938 16.7812 1.7344 15.7891 Q2.375 14.7969 2.375 12.5781 L2.375 9.875 Z"
         id="path24" />
    </g>
    <g
       transform="translate(159.8,369.4)"
       style="font-size:18.6667px; fill:rgb(38,38,38); text-rendering:geometricPrecision; image-rendering:optimizeQuality; color-rendering:optimizeQuality; font-family:'SansSerif'; stroke:rgb(38,38,38); color-interpolation:linearRGB;"
       id="g26">
      <path
         style="stroke:none;"
         d="M-3.3906 12.2344 Q-3.3906 15.5469 -4.5391 16.8672 Q-5.6875 18.1875 -7.6562 18.1875 Q-9.5625 18.1875 -10.7266 16.9062 Q-11.8906 15.625 -11.9375 12.4375 L-11.9375 10.1719 Q-11.9375 6.8594 -10.7734 5.5859 Q-9.6094 4.3125 -7.6719 4.3125 Q-5.7344 4.3125 -4.5859 5.5469 Q-3.4375 6.7812 -3.3906 9.9531 L-3.3906 12.2344 ZM-5.125 9.875 Q-5.125 7.5938 -5.7734 6.6484 Q-6.4219 5.7031 -7.6719 5.7031 Q-8.875 5.7031 -9.5312 6.625 Q-10.1875 7.5469 -10.2031 9.75 L-10.2031 12.5 Q-10.2031 14.7656 -9.5391 15.7734 Q-8.875 16.7812 -7.6562 16.7812 Q-6.4062 16.7812 -5.7656 15.7891 Q-5.125 14.7969 -5.125 12.5781 L-5.125 9.875 ZM-1.1712 17.0938 Q-1.1712 16.6562 -0.8978 16.3516 Q-0.6243 16.0469 -0.1087 16.0469 Q0.4069 16.0469 0.6803 16.3516 Q0.9538 16.6562 0.9538 17.0938 Q0.9538 17.5156 0.6803 17.8125 Q0.4069 18.1094 -0.1087 18.1094 Q-0.6243 18.1094 -0.8978 17.8125 Q-1.1712 17.5156 -1.1712 17.0938 ZM12.3729 16.5938 L12.3729 18 L3.5292 18 L3.5292 16.7656 L8.1229 11.6562 Q9.2479 10.3906 9.6463 9.6328 Q10.0448 8.875 10.0448 8.125 Q10.0448 7.125 9.4276 6.4219 Q8.8104 5.7188 7.6854 5.7188 Q6.326 5.7188 5.662 6.4844 Q4.9979 7.25 4.9979 8.4688 L3.2792 8.4688 Q3.2792 6.75 4.4042 5.5312 Q5.5292 4.3125 7.6854 4.3125 Q9.5917 4.3125 10.6776 5.3047 Q11.7635 6.2969 11.7635 7.9219 Q11.7635 9.1094 11.0292 10.3047 Q10.2948 11.5 9.2167 12.6719 L5.6073 16.5938 L12.3729 16.5938 Z"
         id="path25" />
    </g>
    <g
       transform="translate(246.6,369.4)"
       style="font-size:18.6667px; fill:rgb(38,38,38); text-rendering:geometricPrecision; image-rendering:optimizeQuality; color-rendering:optimizeQuality; font-family:'SansSerif'; stroke:rgb(38,38,38); color-interpolation:linearRGB;"
       id="g27">
      <path
         style="stroke:none;"
         d="M-3.3906 12.2344 Q-3.3906 15.5469 -4.5391 16.8672 Q-5.6875 18.1875 -7.6562 18.1875 Q-9.5625 18.1875 -10.7266 16.9062 Q-11.8906 15.625 -11.9375 12.4375 L-11.9375 10.1719 Q-11.9375 6.8594 -10.7734 5.5859 Q-9.6094 4.3125 -7.6719 4.3125 Q-5.7344 4.3125 -4.5859 5.5469 Q-3.4375 6.7812 -3.3906 9.9531 L-3.3906 12.2344 ZM-5.125 9.875 Q-5.125 7.5938 -5.7734 6.6484 Q-6.4219 5.7031 -7.6719 5.7031 Q-8.875 5.7031 -9.5312 6.625 Q-10.1875 7.5469 -10.2031 9.75 L-10.2031 12.5 Q-10.2031 14.7656 -9.5391 15.7734 Q-8.875 16.7812 -7.6562 16.7812 Q-6.4062 16.7812 -5.7656 15.7891 Q-5.125 14.7969 -5.125 12.5781 L-5.125 9.875 ZM-1.1712 17.0938 Q-1.1712 16.6562 -0.8978 16.3516 Q-0.6243 16.0469 -0.1087 16.0469 Q0.4069 16.0469 0.6803 16.3516 Q0.9538 16.6562 0.9538 17.0938 Q0.9538 17.5156 0.6803 17.8125 Q0.4069 18.1094 -0.1087 18.1094 Q-0.6243 18.1094 -0.8978 17.8125 Q-1.1712 17.5156 -1.1712 17.0938 ZM2.8885 13.8594 L8.951 4.4844 L10.7792 4.4844 L10.7792 13.4531 L12.6542 13.4531 L12.6542 14.8594 L10.7792 14.8594 L10.7792 18 L9.0604 18 L9.0604 14.8594 L2.8885 14.8594 L2.8885 13.8594 ZM4.8417 13.4531 L9.0604 13.4531 L9.0604 6.8281 L8.8417 7.2031 L4.8417 13.4531 Z"
         id="path26" />
    </g>
    <g
       transform="translate(333.4,369.4)"
       style="font-size:18.6667px; fill:rgb(38,38,38); text-rendering:geometricPrecision; image-rendering:optimizeQuality; color-rendering:optimizeQuality; font-family:'SansSerif'; stroke:rgb(38,38,38); color-interpolation:linearRGB;"
       id="g28">
      <path
         style="stroke:none;"
         d="M-3.3906 12.2344 Q-3.3906 15.5469 -4.5391 16.8672 Q-5.6875 18.1875 -7.6562 18.1875 Q-9.5625 18.1875 -10.7266 16.9062 Q-11.8906 15.625 -11.9375 12.4375 L-11.9375 10.1719 Q-11.9375 6.8594 -10.7734 5.5859 Q-9.6094 4.3125 -7.6719 4.3125 Q-5.7344 4.3125 -4.5859 5.5469 Q-3.4375 6.7812 -3.3906 9.9531 L-3.3906 12.2344 ZM-5.125 9.875 Q-5.125 7.5938 -5.7734 6.6484 Q-6.4219 5.7031 -7.6719 5.7031 Q-8.875 5.7031 -9.5312 6.625 Q-10.1875 7.5469 -10.2031 9.75 L-10.2031 12.5 Q-10.2031 14.7656 -9.5391 15.7734 Q-8.875 16.7812 -7.6562 16.7812 Q-6.4062 16.7812 -5.7656 15.7891 Q-5.125 14.7969 -5.125 12.5781 L-5.125 9.875 ZM-1.1712 17.0938 Q-1.1712 16.6562 -0.8978 16.3516 Q-0.6243 16.0469 -0.1087 16.0469 Q0.4069 16.0469 0.6803 16.3516 Q0.9538 16.6562 0.9538 17.0938 Q0.9538 17.5156 0.6803 17.8125 Q0.4069 18.1094 -0.1087 18.1094 Q-0.6243 18.1094 -0.8978 17.8125 Q-1.1712 17.5156 -1.1712 17.0938 ZM12.1698 13.5938 Q12.1698 15.5156 11.0995 16.8516 Q10.0292 18.1875 7.9823 18.1875 Q6.5292 18.1875 5.5604 17.4141 Q4.5917 16.6406 4.1151 15.4453 Q3.6385 14.25 3.6385 13 L3.6385 12.1875 Q3.6385 10.2969 4.1698 8.5234 Q4.701 6.75 6.1073 5.6094 Q7.5135 4.4688 10.1073 4.4688 L10.2635 4.4688 L10.2635 5.9375 Q8.4667 5.9375 7.4667 6.5625 Q6.4667 7.1875 5.9823 8.1953 Q5.4979 9.2031 5.3885 10.3594 Q6.4667 9.1406 8.2948 9.1406 Q9.6385 9.1406 10.4979 9.7891 Q11.3573 10.4375 11.7635 11.4609 Q12.1698 12.4844 12.1698 13.5938 ZM5.3573 13.0625 Q5.3573 14.8594 6.162 15.8125 Q6.9667 16.7656 7.9823 16.7656 Q9.1698 16.7656 9.826 15.8984 Q10.4823 15.0312 10.4823 13.6719 Q10.4823 12.4688 9.8729 11.5156 Q9.2635 10.5625 8.0135 10.5625 Q7.1229 10.5625 6.3885 11.1016 Q5.6542 11.6406 5.3573 12.4062 L5.3573 13.0625 Z"
         id="path27" />
    </g>
    <g
       transform="translate(420.2,369.4)"
       style="font-size:18.6667px; fill:rgb(38,38,38); text-rendering:geometricPrecision; image-rendering:optimizeQuality; color-rendering:optimizeQuality; font-family:'SansSerif'; stroke:rgb(38,38,38); color-interpolation:linearRGB;"
       id="g29">
      <path
         style="stroke:none;"
         d="M-3.3906 12.2344 Q-3.3906 15.5469 -4.5391 16.8672 Q-5.6875 18.1875 -7.6562 18.1875 Q-9.5625 18.1875 -10.7266 16.9062 Q-11.8906 15.625 -11.9375 12.4375 L-11.9375 10.1719 Q-11.9375 6.8594 -10.7734 5.5859 Q-9.6094 4.3125 -7.6719 4.3125 Q-5.7344 4.3125 -4.5859 5.5469 Q-3.4375 6.7812 -3.3906 9.9531 L-3.3906 12.2344 ZM-5.125 9.875 Q-5.125 7.5938 -5.7734 6.6484 Q-6.4219 5.7031 -7.6719 5.7031 Q-8.875 5.7031 -9.5312 6.625 Q-10.1875 7.5469 -10.2031 9.75 L-10.2031 12.5 Q-10.2031 14.7656 -9.5391 15.7734 Q-8.875 16.7812 -7.6562 16.7812 Q-6.4062 16.7812 -5.7656 15.7891 Q-5.125 14.7969 -5.125 12.5781 L-5.125 9.875 ZM-1.1712 17.0938 Q-1.1712 16.6562 -0.8978 16.3516 Q-0.6243 16.0469 -0.1087 16.0469 Q0.4069 16.0469 0.6803 16.3516 Q0.9538 16.6562 0.9538 17.0938 Q0.9538 17.5156 0.6803 17.8125 Q0.4069 18.1094 -0.1087 18.1094 Q-0.6243 18.1094 -0.8978 17.8125 Q-1.1712 17.5156 -1.1712 17.0938 ZM12.0292 14.3438 Q12.0292 16.2031 10.7948 17.1953 Q9.5604 18.1875 7.7401 18.1875 Q5.9198 18.1875 4.6854 17.1953 Q3.451 16.2031 3.451 14.3438 Q3.451 13.2188 4.0526 12.3516 Q4.6542 11.4844 5.701 11.0312 Q4.7948 10.5938 4.2713 9.7969 Q3.7479 9 3.7479 8.0156 Q3.7479 6.2344 4.8729 5.2734 Q5.9979 4.3125 7.7323 4.3125 Q9.4667 4.3125 10.5917 5.2734 Q11.7167 6.2344 11.7167 8.0156 Q11.7167 9.0156 11.1776 9.8047 Q10.6385 10.5938 9.7479 11.0312 Q10.7948 11.4844 11.412 12.3516 Q12.0292 13.2188 12.0292 14.3438 ZM9.9979 8.0312 Q9.9979 7.0312 9.3729 6.375 Q8.7479 5.7188 7.7323 5.7188 Q6.7167 5.7188 6.0995 6.3438 Q5.4823 6.9688 5.4823 8.0312 Q5.4823 9.0781 6.0995 9.7109 Q6.7167 10.3438 7.7323 10.3438 Q8.7479 10.3438 9.3729 9.7109 Q9.9979 9.0781 9.9979 8.0312 ZM10.3104 14.3125 Q10.3104 13.1719 9.5917 12.4609 Q8.8729 11.75 7.7167 11.75 Q6.5448 11.75 5.8495 12.4609 Q5.1542 13.1719 5.1542 14.3125 Q5.1542 15.4688 5.8495 16.125 Q6.5448 16.7812 7.7401 16.7812 Q8.9354 16.7812 9.6229 16.125 Q10.3104 15.4688 10.3104 14.3125 Z"
         id="path28" />
    </g>
    <g
       transform="translate(507,369.4)"
       style="font-size:18.6667px; fill:rgb(38,38,38); text-rendering:geometricPrecision; image-rendering:optimizeQuality; color-rendering:optimizeQuality; font-family:'SansSerif'; stroke:rgb(38,38,38); color-interpolation:linearRGB;"
       id="g30">
      <path
         style="stroke:none;"
         d="M1.2656 4.4219 L1.2656 18 L-0.4531 18 L-0.4531 6.5625 L-3.9062 7.8281 L-3.9062 6.2656 L1 4.4219 L1.2656 4.4219 Z"
         id="path29" />
    </g>
    <g
       transform="translate(290.0002,393.7333)"
       style="font-size:20.5333px; fill:rgb(38,38,38); text-rendering:geometricPrecision; image-rendering:optimizeQuality; color-rendering:optimizeQuality; font-family:'SansSerif'; stroke:rgb(38,38,38); color-interpolation:linearRGB;"
       id="g31">
      <path
         style="stroke:none;"
         d="M-2.7656 8.9062 L-0.3438 12.9375 L2.125 8.9062 L4.3438 8.9062 L0.7188 14.375 L4.4531 20 L2.2656 20 L-0.2969 15.8438 L-2.8594 20 L-5.0625 20 L-1.3438 14.375 L-4.9531 8.9062 L-2.7656 8.9062 Z"
         id="path30" />
    </g>
    <g
       style="fill:rgb(38,38,38); text-rendering:geometricPrecision; image-rendering:optimizeQuality; color-rendering:optimizeQuality; stroke-linejoin:round; stroke:rgb(38,38,38); color-interpolation:linearRGB; stroke-width:0.6667;"
       id="g43">
      <line
         y2="31"
         style="fill:none;"
         x1="73"
         x2="73"
         y1="363"
         id="line31" />
      <line
         y2="363"
         style="fill:none;"
         x1="73"
         x2="77.34"
         y1="363"
         id="line32" />
      <line
         y2="31"
         style="fill:none;"
         x1="73"
         x2="77.34"
         y1="31"
         id="line33" />
      <line
         y2="363"
         style="fill:none;"
         x1="73"
         x2="75.17"
         y1="363"
         id="line34" />
      <line
         y2="263.058"
         style="fill:none;"
         x1="73"
         x2="75.17"
         y1="263.058"
         id="line35" />
      <line
         y2="204.5957"
         style="fill:none;"
         x1="73"
         x2="75.17"
         y1="204.5957"
         id="line36" />
      <line
         y2="163.1161"
         style="fill:none;"
         x1="73"
         x2="75.17"
         y1="163.1161"
         id="line37" />
      <line
         y2="130.942"
         style="fill:none;"
         x1="73"
         x2="75.17"
         y1="130.942"
         id="line38" />
      <line
         y2="104.6538"
         style="fill:none;"
         x1="73"
         x2="75.17"
         y1="104.6538"
         id="line39" />
      <line
         y2="82.4275"
         style="fill:none;"
         x1="73"
         x2="75.17"
         y1="82.4275"
         id="line40" />
      <line
         y2="63.1741"
         style="fill:none;"
         x1="73"
         x2="75.17"
         y1="63.1741"
         id="line41" />
      <line
         y2="46.1915"
         style="fill:none;"
         x1="73"
         x2="75.17"
         y1="46.1915"
         id="line42" />
      <line
         y2="31"
         style="fill:none;"
         x1="73"
         x2="75.17"
         y1="31"
         id="line43" />
    </g>
    <g
       transform="translate(33,372)"
       style="font-size:18.6667px; fill:rgb(38,38,38); text-rendering:geometricPrecision; image-rendering:optimizeQuality; color-rendering:optimizeQuality; font-family:'SansSerif'; stroke:rgb(38,38,38); color-interpolation:linearRGB;"
       id="g44">
      <path
         style="stroke:none;"
         d="M6.7656 -13.5781 L6.7656 0 L5.0469 0 L5.0469 -11.4375 L1.5938 -10.1719 L1.5938 -11.7344 L6.5 -13.5781 L6.7656 -13.5781 ZM20.0944 -5.7656 Q20.0944 -2.4531 18.946 -1.1328 Q17.7975 0.1875 15.8288 0.1875 Q13.9225 0.1875 12.7585 -1.0938 Q11.5944 -2.375 11.5475 -5.5625 L11.5475 -7.8281 Q11.5475 -11.1406 12.7116 -12.4141 Q13.8757 -13.6875 15.8132 -13.6875 Q17.7507 -13.6875 18.8991 -12.4531 Q20.0475 -11.2188 20.0944 -8.0469 L20.0944 -5.7656 ZM18.36 -8.125 Q18.36 -10.4062 17.7116 -11.3516 Q17.0632 -12.2969 15.8132 -12.2969 Q14.61 -12.2969 13.9538 -11.375 Q13.2975 -10.4531 13.2819 -8.25 L13.2819 -5.5 Q13.2819 -3.2344 13.946 -2.2266 Q14.61 -1.2188 15.8288 -1.2188 Q17.0788 -1.2188 17.7194 -2.2109 Q18.36 -3.2031 18.36 -5.4219 L18.36 -8.125 Z"
         id="path43" />
    </g>
    <g
       transform="translate(54,363)"
       style="font-size:14.9333px; fill:rgb(38,38,38); text-rendering:geometricPrecision; image-rendering:optimizeQuality; color-rendering:optimizeQuality; font-family:'SansSerif'; stroke:rgb(38,38,38); color-interpolation:linearRGB;"
       id="g45">
      <path
         style="stroke:none;"
         d="M3.8594 -5.0938 L3.8594 -3.9844 L0.2812 -3.9844 L0.2812 -5.0938 L3.8594 -5.0938 ZM9.4633 -10.7188 L9.4633 0 L8.104 0 L8.104 -9.0312 L5.3696 -8.0312 L5.3696 -9.2656 L9.2446 -10.7188 L9.4633 -10.7188 Z"
         id="path44" />
    </g>
    <g
       transform="translate(37,40)"
       style="font-size:18.6667px; fill:rgb(38,38,38); text-rendering:geometricPrecision; image-rendering:optimizeQuality; color-rendering:optimizeQuality; font-family:'SansSerif'; stroke:rgb(38,38,38); color-interpolation:linearRGB;"
       id="g46">
      <path
         style="stroke:none;"
         d="M6.7656 -13.5781 L6.7656 0 L5.0469 0 L5.0469 -11.4375 L1.5938 -10.1719 L1.5938 -11.7344 L6.5 -13.5781 L6.7656 -13.5781 ZM20.0944 -5.7656 Q20.0944 -2.4531 18.946 -1.1328 Q17.7975 0.1875 15.8288 0.1875 Q13.9225 0.1875 12.7585 -1.0938 Q11.5944 -2.375 11.5475 -5.5625 L11.5475 -7.8281 Q11.5475 -11.1406 12.7116 -12.4141 Q13.8757 -13.6875 15.8132 -13.6875 Q17.7507 -13.6875 18.8991 -12.4531 Q20.0475 -11.2188 20.0944 -8.0469 L20.0944 -5.7656 ZM18.36 -8.125 Q18.36 -10.4062 17.7116 -11.3516 Q17.0632 -12.2969 15.8132 -12.2969 Q14.61 -12.2969 13.9538 -11.375 Q13.2975 -10.4531 13.2819 -8.25 L13.2819 -5.5 Q13.2819 -3.2344 13.946 -2.2266 Q14.61 -1.2188 15.8288 -1.2188 Q17.0788 -1.2188 17.7194 -2.2109 Q18.36 -3.2031 18.36 -5.4219 L18.36 -8.125 Z"
         id="path45" />
    </g>
    <g
       transform="translate(58,31)"
       style="font-size:14.9333px; fill:rgb(38,38,38); text-rendering:geometricPrecision; image-rendering:optimizeQuality; color-rendering:optimizeQuality; font-family:'SansSerif'; stroke:rgb(38,38,38); color-interpolation:linearRGB;"
       id="g47">
      <path
         style="stroke:none;"
         d="M7.5781 -4.5625 Q7.5781 -1.9375 6.6719 -0.8984 Q5.7656 0.1406 4.2188 0.1406 Q2.7031 0.1406 1.7891 -0.8672 Q0.875 -1.875 0.8438 -4.3906 L0.8438 -6.1875 Q0.8438 -8.7969 1.7578 -9.8047 Q2.6719 -10.8125 4.2031 -10.8125 Q5.7344 -10.8125 6.6406 -9.8359 Q7.5469 -8.8594 7.5781 -6.3438 L7.5781 -4.5625 ZM6.2188 -6.4062 Q6.2188 -8.2031 5.7031 -8.9531 Q5.1875 -9.7031 4.2031 -9.7031 Q3.25 -9.7031 2.7344 -8.9766 Q2.2188 -8.25 2.2031 -6.5156 L2.2031 -4.3438 Q2.2031 -2.5469 2.7266 -1.7578 Q3.25 -0.9688 4.2188 -0.9688 Q5.2031 -0.9688 5.7109 -1.75 Q6.2188 -2.5312 6.2188 -4.2812 L6.2188 -6.4062 Z"
         id="path46" />
    </g>
    <g
       transform="translate(28.6,196.9998) rotate(-90)"
       style="font-size:20.5333px; fill:rgb(38,38,38); text-rendering:geometricPrecision; image-rendering:optimizeQuality; color-rendering:optimizeQuality; font-family:'SansSerif'; stroke:rgb(38,38,38); color-interpolation:linearRGB;"
       id="g48">
      <path
         style="stroke:none;"
         d="M0.5156 -5.7969 Q-1.4844 -5.7969 -2.6562 -7.0781 L-2.6562 -1.7344 L-4.5625 -1.7344 L-4.5625 -17.0938 L-2.8281 -17.0938 L-2.7344 -15.875 Q-1.5625 -17.2969 0.4844 -17.2969 Q2.5781 -17.2969 3.6953 -15.7422 Q4.8125 -14.1875 4.8125 -11.6406 L4.8125 -11.4219 Q4.8125 -9 3.6953 -7.3984 Q2.5781 -5.7969 0.5156 -5.7969 ZM-0.0781 -15.7031 Q-1.7969 -15.7031 -2.6562 -14.1719 L-2.6562 -8.8594 Q-1.7812 -7.3594 -0.0469 -7.3594 Q1.4844 -7.3594 2.1953 -8.5703 Q2.9062 -9.7812 2.9062 -11.4219 L2.9062 -11.6406 Q2.9062 -13.2969 2.1953 -14.5 Q1.4844 -15.7031 -0.0781 -15.7031 Z"
         id="path47" />
    </g>
    <g
       style="stroke-linecap:butt; fill:rgb(0,114,189); text-rendering:geometricPrecision; image-rendering:optimizeQuality; color-rendering:optimizeQuality; stroke-linejoin:round; stroke:rgb(0,114,189); color-interpolation:linearRGB; stroke-width:2.6667;"
       id="g53">
      <path
         d="M75.5795 176.9927 L79.874 137.1051 L84.1684 122.9049 L88.4628 114.8129 L92.7572 109.264 L97.0516 105.0627 L101.3461 101.6773 L105.6405 98.8301 L109.9349 96.359 L114.2293 94.1623 L118.5236 92.1724 L122.818 90.3423 L127.1124 88.6369 L131.4069 87.0228 L135.8271 85.3951 L140.296 83.8524 L144.6877 82.4847 L149.0793 81.2046 L153.471 79.9868 L157.8626 78.8179 L162.2543 77.6897 L166.6459 76.5968 L171.0376 75.5349 L175.4292 74.5012 L179.8209 73.4937 L184.2125 72.5104 L188.6041 71.5499 L192.9958 70.6109 L197.3874 69.6923 L201.7791 68.7932 L206.1707 67.9128 L210.5624 67.0505 L214.954 66.2052 L219.3457 65.3765 L223.7373 64.5639 L228.129 63.7667 L232.521 62.9845 L236.9127 62.2167 L241.3043 61.4627 L245.696 60.7223 L250.0876 59.995 L254.4793 59.2803 L258.8709 58.578 L263.2626 57.8874 L267.6542 57.2085 L272.0459 56.5408 L276.4375 55.8841 L280.8291 55.2377 L285.2208 54.6016 L289.6124 53.9755 L294.0041 53.3591 L298.3957 52.752 L302.7874 52.1541 L307.179 51.5649 L311.5706 50.9842 L315.9623 50.4121 L320.3539 49.8479 L324.746 49.2917 L329.1377 48.7431 L333.5293 48.2019 L337.921 47.6681 L342.3126 47.1413 L346.7043 46.6212 L351.0959 46.1079 L355.4875 45.6009 L359.8792 45.1003 L364.2709 44.6057 L368.6625 44.1172 L373.0541 43.6345 L377.4458 43.1573 L381.8374 42.6856 L386.2291 42.2193 L390.6207 41.7581 L395.0124 41.3019 L399.404 40.8507 L403.7957 40.4042 L408.1873 39.9624 L412.5789 39.525 L416.971 39.092 L421.3627 38.6633 L425.7543 38.2388 L430.146 37.8182 L434.5376 37.4016 L438.9293 36.9887 L443.3209 36.5797 L447.7126 36.1741 L452.1042 35.7722 L456.4958 35.3736 L460.8875 34.9782 L465.2791 34.5863 L469.6708 34.1973 L474.0624 33.8113 L478.4541 33.4282 L482.8457 33.0479 L487.2374 32.6704 L491.629 32.2954 L496.0207 31.9227 L500.4123 31.5523 L504.804 31.1837"
         style="fill:none; fill-rule:evenodd;"
         id="path48" />
      <path
         d="M75.5795 223.5544 L79.874 167.7202 L84.1684 145.6709 L88.4628 132.786 L92.7572 124.0195 L97.0516 117.5258 L101.3461 112.4346 L105.6405 108.273 L109.9349 104.7591 L114.2293 101.714 L118.5236 99.0188 L122.818 96.5922 L127.1124 94.3778 L131.4069 92.3363 L135.8271 90.3852 L140.296 88.63 L144.6877 87.0086 L149.0793 85.4737 L153.471 84.0133 L157.8626 82.6181 L162.2543 81.28 L166.6459 79.9927 L171.0376 78.7512 L175.4292 77.5513 L179.8209 76.3893 L184.2125 75.2624 L188.6041 74.168 L192.9958 73.1039 L197.3874 72.0685 L201.7791 71.0598 L206.1707 70.0765 L210.5624 69.1172 L214.954 68.1809 L219.3457 67.2663 L223.7373 66.3726 L228.129 65.4988 L232.521 64.644 L236.9127 63.8074 L241.3043 62.9884 L245.696 62.1862 L250.0876 61.4002 L254.4793 60.6298 L258.8709 59.8744 L263.2626 59.1335 L267.6542 58.4065 L272.0459 57.693 L276.4375 56.9923 L280.8291 56.3042 L285.2208 55.6282 L289.6124 54.9638 L294.0041 54.3108 L298.3957 53.6687 L302.7874 53.0372 L307.179 52.4158 L311.5706 51.8043 L315.9623 51.2023 L320.3539 50.6097 L324.746 50.0259 L329.1377 49.4509 L333.5293 48.8842 L337.921 48.3258 L342.3126 47.7751 L346.7043 47.2323 L351.0959 46.6967 L355.4875 46.1684 L359.8792 45.647 L364.2709 45.1322 L368.6625 44.6241 L373.0541 44.1223 L377.4458 43.6268 L381.8374 43.1371 L386.2291 42.6531 L390.6207 42.1747 L395.0124 41.7019 L399.404 41.2341 L403.7957 40.7715 L408.1873 40.3139 L412.5789 39.861 L416.971 39.4128 L421.3627 38.9689 L425.7543 38.5294 L430.146 38.094 L434.5376 37.6627 L438.9293 37.2353 L443.3209 36.8116 L447.7126 36.3916 L452.1042 35.975 L456.4958 35.5618 L460.8875 35.1518 L465.2791 34.7448 L469.6708 34.3408 L474.0624 33.9394 L478.4541 33.5408 L482.8457 33.1445 L487.2374 32.7505 L491.629 32.3586 L496.0207 31.9684 L500.4123 31.5801 L504.804 31.1931"
         style="fill:none; fill-rule:evenodd; stroke:rgb(217,83,25);"
         id="path49" />
      <path
         d="M75.5795 234.9028 L79.874 178.8071 L84.1684 156.2932 L88.4628 142.8209 L92.7572 133.4136 L97.0516 126.2738 L101.3461 120.5605 L105.6405 115.816 L109.9349 111.7645 L114.2293 108.2279 L118.5236 105.0863 L122.818 102.2556 L127.1124 99.6757 L131.4069 97.3044 L135.8271 95.0471 L140.296 93.0252 L144.6877 91.1633 L149.0793 89.406 L153.471 87.7382 L157.8626 86.1487 L162.2543 84.6284 L166.6459 83.1701 L171.0376 81.7678 L175.4292 80.4168 L179.8209 79.1131 L184.2125 77.8529 L188.6041 76.6332 L192.9958 75.4515 L197.3874 74.305 L201.7791 73.1922 L206.1707 72.1104 L210.5624 71.0587 L214.954 70.0349 L219.3457 69.0379 L223.7373 68.0662 L228.129 67.1186 L232.521 66.1941 L236.9127 65.2917 L241.3043 64.4102 L245.696 63.5486 L250.0876 62.7065 L254.4793 61.8826 L258.8709 61.0764 L263.2626 60.2872 L267.6542 59.5143 L272.0459 58.7569 L276.4375 58.0147 L280.8291 57.2867 L285.2208 56.5728 L289.6124 55.8723 L294.0041 55.1845 L298.3957 54.5093 L302.7874 53.846 L307.179 53.1942 L311.5706 52.5537 L315.9623 51.9238 L320.3539 51.3044 L324.746 50.6948 L329.1377 50.0949 L333.5293 49.5045 L337.921 48.9231 L342.3126 48.3502 L346.7043 47.7858 L351.0959 47.2297 L355.4875 46.6813 L359.8792 46.1405 L364.2709 45.6071 L368.6625 45.0809 L373.0541 44.5613 L377.4458 44.0486 L381.8374 43.5421 L386.2291 43.0419 L390.6207 42.5476 L395.0124 42.0592 L399.404 41.5763 L403.7957 41.0987 L408.1873 40.6264 L412.5789 40.1592 L416.971 39.6967 L421.3627 39.2387 L425.7543 38.7854 L430.146 38.3364 L434.5376 37.8915 L438.9293 37.4506 L443.3209 37.0135 L447.7126 36.58 L452.1042 36.1501 L456.4958 35.7234 L460.8875 35.2998 L465.2791 34.8793 L469.6708 34.4614 L474.0624 34.0465 L478.4541 33.6338 L482.8457 33.2235 L487.2374 32.8153 L491.629 32.4091 L496.0207 32.0047 L500.4123 31.6018 L504.804 31.2003"
         style="fill:none; fill-rule:evenodd; stroke:rgb(237,177,32);"
         id="path50" />
      <path
         d="M75.5795 240.6917 L79.874 184.5482 L84.1684 161.945 L88.4628 148.3468 L92.7572 138.7825 L97.0516 131.4623 L101.3461 125.5522 L105.6405 120.6005 L109.9349 116.3368 L114.2293 112.5878 L118.5236 109.2365 L122.818 106.201 L127.1124 103.4239 L131.4069 100.8634 L135.8271 98.4213 L140.296 96.23 L144.6877 94.2107 L149.0793 92.304 L153.471 90.4945 L157.8626 88.7703 L162.2543 87.1224 L166.6459 85.5429 L171.0376 84.0258 L175.4292 82.5661 L179.8209 81.1593 L184.2125 79.8016 L188.6041 78.4894 L192.9958 77.2203 L197.3874 75.9912 L201.7791 74.8 L206.1707 73.6444 L210.5624 72.5225 L214.954 71.4325 L219.3457 70.3727 L223.7373 69.3418 L228.129 68.3381 L232.521 67.3604 L236.9127 66.4074 L241.3043 65.478 L245.696 64.5712 L250.0876 63.686 L254.4793 62.8213 L258.8709 61.9762 L263.2626 61.1501 L267.6542 60.342 L272.0459 59.5512 L276.4375 58.7771 L280.8291 58.019 L285.2208 57.2761 L289.6124 56.5479 L294.0041 55.8339 L298.3957 55.1335 L302.7874 54.4462 L307.179 53.7714 L311.5706 53.1086 L315.9623 52.4576 L320.3539 51.8178 L324.746 51.1889 L329.1377 50.5704 L333.5293 49.9618 L337.921 49.363 L342.3126 48.7736 L346.7043 48.1932 L351.0959 47.6214 L355.4875 47.0579 L359.8792 46.5026 L364.2709 45.9552 L368.6625 45.4151 L373.0541 44.8825 L377.4458 44.3568 L381.8374 43.8378 L386.2291 43.3254 L390.6207 42.8192 L395.0124 42.3191 L399.404 41.8249 L403.7957 41.3361 L408.1873 40.8529 L412.5789 40.3748 L416.971 39.9018 L421.3627 39.4334 L425.7543 38.9699 L430.146 38.5106 L434.5376 38.0556 L438.9293 37.6046 L443.3209 37.1575 L447.7126 36.7141 L452.1042 36.2742 L456.4958 35.8375 L460.8875 35.4041 L465.2791 34.9737 L469.6708 34.5461 L474.0624 34.1211 L478.4541 33.6986 L482.8457 33.2783 L487.2374 32.8601 L491.629 32.4439 L496.0207 32.0295 L500.4123 31.6167 L504.804 31.2052"
         style="fill:none; fill-rule:evenodd; stroke:rgb(126,47,142);"
         id="path51" />
      <path
         d="M75.5795 243.7356 L79.874 187.5755 L84.1684 164.9415 L88.4628 151.2986 L92.7572 141.6781 L97.0516 134.2914 L101.3461 128.3057 L105.6405 123.2716 L109.9349 118.9201 L114.2293 115.0789 L118.5236 111.6333 L122.818 108.5025 L127.1124 105.6299 L131.4069 102.9752 L135.8271 100.438 L140.296 98.1573 L144.6877 96.0529 L149.0793 94.0635 L153.471 92.1742 L157.8626 90.3733 L162.2543 88.6515 L166.6459 87.0013 L171.0376 85.4165 L175.4292 83.8922 L179.8209 82.4235 L184.2125 81.007 L188.6041 79.639 L192.9958 78.3166 L197.3874 77.0368 L201.7791 75.7975 L206.1707 74.5964 L210.5624 73.4312 L214.954 72.3002 L219.3457 71.2015 L223.7373 70.1336 L228.129 69.0948 L232.521 68.0839 L236.9127 67.0994 L241.3043 66.1402 L245.696 65.205 L250.0876 64.2928 L254.4793 63.4025 L258.8709 62.5332 L263.2626 61.6839 L267.6542 60.8539 L272.0459 60.0423 L276.4375 59.2482 L280.8291 58.471 L285.2208 57.71 L289.6124 56.9645 L294.0041 56.2341 L298.3957 55.5179 L302.7874 54.8154 L307.179 54.1262 L311.5706 53.4499 L315.9623 52.7856 L320.3539 52.1332 L324.746 51.492 L329.1377 50.8618 L333.5293 50.2421 L337.921 49.6326 L342.3126 49.0327 L346.7043 48.4422 L351.0959 47.8609 L355.4875 47.2881 L359.8792 46.7239 L364.2709 46.1676 L368.6625 45.6193 L373.0541 45.0782 L377.4458 44.5446 L381.8374 44.0179 L386.2291 43.4979 L390.6207 42.9844 L395.0124 42.477 L399.404 41.9757 L403.7957 41.4801 L408.1873 40.99 L412.5789 40.5053 L416.971 40.0257 L421.3627 39.551 L425.7543 39.081 L430.146 38.6154 L434.5376 38.1542 L438.9293 37.697 L443.3209 37.2439 L447.7126 36.7944 L452.1042 36.3484 L456.4958 35.9058 L460.8875 35.4664 L465.2791 35.03 L469.6708 34.5963 L474.0624 34.1653 L478.4541 33.7369 L482.8457 33.3107 L487.2374 32.8867 L491.629 32.4645 L496.0207 32.0442 L500.4123 31.6254 L504.804 31.2082"
         style="fill:none; fill-rule:evenodd; stroke:rgb(119,172,48);"
         id="path52" />
      <path
         d="M75.5795 244.701 L79.874 188.5359 L84.1684 165.893 L88.4628 152.2385 L92.7572 142.6028 L97.0516 135.1976 L101.3461 129.1913 L105.6405 124.1341 L109.9349 119.7575 L114.2293 115.8903 L118.5236 112.4171 L122.818 109.258 L127.1124 106.357 L131.4069 103.6738 L135.8271 101.1075 L140.296 98.799 L144.6877 96.6677 L149.0793 94.6522 L153.471 92.7373 L157.8626 90.9116 L162.2543 89.1658 L166.6459 87.4925 L171.0376 85.8856 L175.4292 84.3396 L179.8209 82.8507 L184.2125 81.4145 L188.6041 80.0277 L192.9958 78.6876 L197.3874 77.3908 L201.7791 76.1355 L206.1707 74.9188 L210.5624 73.7392 L214.954 72.5943 L219.3457 71.4825 L223.7373 70.4019 L228.129 69.3514 L232.521 68.3292 L236.9127 67.3338 L241.3043 66.3645 L245.696 65.4197 L250.0876 64.4982 L254.4793 63.5992 L258.8709 62.7217 L263.2626 61.8646 L267.6542 61.027 L272.0459 60.2083 L276.4375 59.4073 L280.8291 58.6237 L285.2208 57.8567 L289.6124 57.1053 L294.0041 56.3693 L298.3957 55.6477 L302.7874 54.9402 L307.179 54.2461 L311.5706 53.565 L315.9623 52.8963 L320.3539 52.2396 L324.746 51.5943 L329.1377 50.9602 L333.5293 50.3366 L337.921 49.7234 L342.3126 49.12 L346.7043 48.5262 L351.0959 47.9414 L355.4875 47.3656 L359.8792 46.7982 L364.2709 46.2391 L368.6625 45.6877 L373.0541 45.144 L377.4458 44.6076 L381.8374 44.0784 L386.2291 43.5558 L390.6207 43.0397 L395.0124 42.5299 L399.404 42.0263 L403.7957 41.5283 L408.1873 41.0361 L412.5789 40.5491 L416.971 40.0672 L421.3627 39.5903 L425.7543 39.1182 L430.146 38.6505 L434.5376 38.1872 L438.9293 37.728 L443.3209 37.2726 L447.7126 36.8211 L452.1042 36.3732 L456.4958 35.9285 L460.8875 35.4871 L465.2791 35.0487 L469.6708 34.613 L474.0624 34.1801 L478.4541 33.7496 L482.8457 33.3215 L487.2374 32.8955 L491.629 32.4713 L496.0207 32.049 L500.4123 31.6283 L504.804 31.2091"
         style="fill:none; fill-rule:evenodd; stroke:rgb(77,190,238);"
         id="path53" />
    </g>
    <g
       style="stroke-linecap:butt; text-rendering:geometricPrecision; image-rendering:optimizeQuality; color-rendering:optimizeQuality; stroke-linejoin:bevel; stroke-dasharray:8,8; color-interpolation:linearRGB; stroke-width:2.6667; stroke-miterlimit:1;"
       id="g55">
      <path
         d="M74.7476 363.0396 L74.816 358.8984 L75.0114 348.9506 L75.228 339.6451 L75.4678 330.9039 L75.7334 322.6624 L76.0277 314.8667 L76.3536 307.4709 L76.7146 300.4361 L77.1145 293.7286 L77.5574 287.3192 L78.048 281.1828 L78.5914 275.2968 L79.1933 269.6418 L79.8599 264.2001 L80.5984 258.9564 L81.4163 253.8968 L82.3223 249.0086 L83.3258 244.2808 L84.4374 239.7031 L85.6686 235.2663 L87.0323 230.9619 L88.5428 226.7823 L90.216 222.7205 L92.0692 218.7699 L94.1219 214.9247 L96.3956 211.1794 L98.9141 207.529 L101.7037 203.9687 L104.7935 200.4941 L108.216 197.1014 L112.0068 193.7866 L116.2058 190.5463 L120.8567 187.3773 L126.0083 184.2764 L131.7145 181.2408 L138.0349 178.2678 L138.1 178.239 L145.6286 173.1042 L153.1571 168.146 L160.6857 163.3526 L168.2143 158.7135 L175.7429 154.2189 L183.2714 149.8603 L190.8 145.6296 L198.3286 141.5195 L205.8571 137.5232 L213.3857 133.6348 L220.9143 129.8485 L228.4429 126.1591 L235.9714 122.5617 L243.5 119.0519 L251.0286 115.6255 L258.5572 112.2787 L266.0857 109.0078 L273.6143 105.8094 L281.1429 102.6804 L288.6714 99.618 L296.2 96.6192 L303.7286 93.6815 L311.2571 90.8024 L318.7857 87.9798 L326.3143 85.2113 L333.8429 82.495 L341.3714 79.8289 L348.9 77.2112 L356.4286 74.6402 L363.9572 72.1143 L371.4857 69.6318 L379.0143 67.1913 L386.5429 64.7915 L394.0714 62.431 L401.6 60.1084 L409.1286 57.8227 L416.6571 55.5727 L424.1857 53.3572 L431.7143 51.1753 L439.2429 49.0259 L446.7714 46.9081 L454.3 44.8209 L461.8286 42.7635 L469.3571 40.7351 L476.8857 38.7348 L484.4143 36.7618 L491.9428 34.8155 L499.4714 32.8951 L507 31"
         style="fill:none; fill-rule:evenodd;"
         id="path54" />
      <path
         d="M73.5649 242.6613 L73.7354 160.4784 L73.9572 118.9517 L74.246 93.5983 L74.6219 76.76 L75.1112 65.0405 L75.7482 56.6428 L76.5773 50.508 L77.6565 45.9663 L79.0614 42.5718 L80.8901 40.0173 L83.2704 38.0851 L86.3689 36.6182 L90.4022 35.5013 L95.6524 34.6491 L102.4864 33.9978 L111.3822 33.4994 L122.9618 33.1177 L138.0349 32.8252 L138.1 32.8242 L145.6286 32.7184 L153.1571 32.623 L160.6857 32.5363 L168.2143 32.4568 L175.7429 32.3834 L183.2714 32.3151 L190.8 32.2515 L198.3286 32.1918 L205.8571 32.1356 L213.3857 32.0825 L220.9143 32.0322 L228.4429 31.9845 L235.9714 31.939 L243.5 31.8955 L251.0286 31.854 L258.5572 31.8142 L266.0857 31.776 L273.6143 31.7392 L281.1429 31.7038 L288.6714 31.6697 L296.2 31.6368 L303.7286 31.605 L311.2571 31.5742 L318.7857 31.5443 L326.3143 31.5154 L333.8429 31.4873 L341.3714 31.46 L348.9 31.4335 L356.4286 31.4077 L363.9572 31.3826 L371.4857 31.3581 L379.0143 31.3343 L386.5429 31.311 L394.0714 31.2883 L401.6 31.2661 L409.1286 31.2444 L416.6571 31.2232 L424.1857 31.2025 L431.7143 31.1822 L439.2429 31.1623 L446.7714 31.1428 L454.3 31.1238 L461.8286 31.1051 L469.3571 31.0867 L476.8857 31.0687 L484.4143 31.0511 L491.9428 31.0337 L499.4714 31.0167 L507 31"
         style="fill:none; stroke-dasharray:8,2,4,2; fill-rule:evenodd;"
         id="path55" />
    </g>
    <g
       style="fill:white; text-rendering:optimizeSpeed; color-rendering:optimizeSpeed; image-rendering:optimizeSpeed; shape-rendering:crispEdges; stroke:white; color-interpolation:sRGB;"
       id="g56">
      <path
         style="stroke:none;"
         d="M497 346 L497 214 L372 214 L372 346 Z"
         id="path56" />
    </g>
    <g
       transform="translate(419,232)"
       style="font-size:16.8px; text-rendering:geometricPrecision; color-rendering:optimizeQuality; image-rendering:optimizeQuality; font-family:'mwb_cmmi10'; color-interpolation:linearRGB;"
       id="g57">
      <path
         style="stroke:none;"
         d="M2.7656 2.6406 Q2.7969 2.4531 3 2.4531 Q3.0156 2.4531 3.3203 2.6172 Q3.625 2.7812 3.9922 2.9141 Q4.3594 3.0469 4.7188 3.0469 Q5.0312 3.0469 5.25 2.7734 Q5.4688 2.5 5.4688 2.1875 Q5.4688 1.75 5 1.5625 L2.1094 0.4375 Q1.3594 0.1562 0.875 -0.4219 Q0.3906 -1 0.3906 -1.7344 Q0.3906 -2.3906 0.7422 -3.1016 Q1.0938 -3.8125 1.6406 -4.3906 Q2.1875 -4.9688 2.8125 -5.3281 Q2.3125 -5.625 2.0312 -6.0938 Q1.75 -6.5625 1.75 -7.125 Q1.75 -7.7188 1.9922 -8.2344 Q2.2344 -8.75 2.6641 -9.1719 Q3.0938 -9.5938 3.6172 -9.8906 Q4.1406 -10.1875 4.6719 -10.3281 Q4.5938 -10.6875 4.5938 -10.9688 Q4.5938 -11.8906 4.9531 -11.8906 Q5.0312 -11.8906 5.1016 -11.8203 Q5.1719 -11.75 5.1719 -11.6562 Q5.1719 -11.5781 5.125 -11.2969 Q5.0781 -11.0156 5.0781 -10.9531 Q5.0781 -10.6562 5.1562 -10.4375 Q5.5938 -10.5312 6 -10.5312 Q7.5625 -10.5312 7.5625 -10.0469 Q7.5625 -9.4688 5.8281 -9.4688 Q5.2969 -9.4688 4.9688 -9.8281 Q4.4688 -9.5781 4.0547 -9.125 Q3.6406 -8.6719 3.4062 -8.1094 Q3.1719 -7.5469 3.1719 -6.9688 Q3.1719 -6.1719 3.6406 -5.6875 Q4.2344 -5.9062 4.8438 -5.9062 Q6.4062 -5.9062 6.4062 -5.4219 Q6.4062 -4.8438 4.6719 -4.8438 Q3.9688 -4.8438 3.3438 -5.0625 Q2.5938 -4.6562 1.9609 -3.8281 Q1.3281 -3 1.3281 -2.2188 Q1.3281 -1.7344 1.6875 -1.3516 Q2.0469 -0.9688 2.5781 -0.75 L5.5938 0.4219 Q5.9844 0.5781 6.2266 0.9062 Q6.4688 1.2344 6.4688 1.6562 Q6.4688 2.3438 5.9375 2.9141 Q5.4062 3.4844 4.7031 3.4844 Q4.4844 3.4844 4 3.3672 Q3.5156 3.25 3.1406 3.0625 Q2.7656 2.875 2.7656 2.6406 ZM4.1562 -5.375 Q4.375 -5.2812 4.7031 -5.2812 Q5.5312 -5.2812 5.8906 -5.3906 Q5.5625 -5.4531 4.8281 -5.4531 Q4.5469 -5.4531 4.1562 -5.375 ZM5.4531 -10.0156 Q5.6094 -9.9062 5.875 -9.9062 Q6.6875 -9.9062 7.0469 -10.0156 L5.4531 -10.0156 Z"
         id="path57" />
    </g>
    <g
       transform="translate(427,232)"
       style="font-size:16.8px; text-rendering:geometricPrecision; color-rendering:optimizeQuality; image-rendering:optimizeQuality; font-family:'SansSerif'; color-interpolation:linearRGB;"
       id="g58">
      <path
         style="stroke:none;"
         d="M10.6782 -12.0938 L5.6469 1.0312 L4.3188 1.0312 L9.3657 -12.0938 L10.6782 -12.0938 ZM23.9834 -1.2969 L23.9834 0 L16.6552 0 L16.6552 -12.0938 L18.249 -12.0938 L18.249 -1.2969 L23.9834 -1.2969 ZM36.637 -8.0938 L36.637 -6.75 L29.7151 -6.75 L29.7151 -8.0938 L36.637 -8.0938 ZM36.637 -4.6562 L36.637 -3.3125 L29.7151 -3.3125 L29.7151 -4.6562 L36.637 -4.6562 ZM50.4158 -5.1562 Q50.4158 -2.1875 49.3923 -1.0078 Q48.3689 0.1719 46.6033 0.1719 Q44.9001 0.1719 43.8533 -0.9766 Q42.8064 -2.125 42.7751 -4.9688 L42.7751 -7 Q42.7751 -9.9688 43.8142 -11.1094 Q44.8533 -12.25 46.5876 -12.25 Q48.322 -12.25 49.3533 -11.1406 Q50.3845 -10.0312 50.4158 -7.2031 L50.4158 -5.1562 ZM48.8689 -7.2656 Q48.8689 -9.3125 48.2908 -10.1562 Q47.7126 -11 46.5876 -11 Q45.5095 -11 44.9236 -10.1797 Q44.3376 -9.3594 44.322 -7.375 L44.322 -4.9219 Q44.322 -2.8906 44.9158 -1.9922 Q45.5095 -1.0938 46.6033 -1.0938 Q47.7283 -1.0938 48.2986 -1.9766 Q48.8689 -2.8594 48.8689 -4.8438 L48.8689 -7.2656 ZM52.4564 -0.8125 Q52.4564 -1.2031 52.6986 -1.4766 Q52.9408 -1.75 53.4017 -1.75 Q53.8627 -1.75 54.1127 -1.4766 Q54.3627 -1.2031 54.3627 -0.8125 Q54.3627 -0.4375 54.1127 -0.1719 Q53.8627 0.0938 53.4017 0.0938 Q52.9408 0.0938 52.6986 -0.1719 Q52.4564 -0.4375 52.4564 -0.8125 ZM64.2718 -5.1562 Q64.2718 -2.1875 63.2483 -1.0078 Q62.2249 0.1719 60.4593 0.1719 Q58.7561 0.1719 57.7093 -0.9766 Q56.6624 -2.125 56.6311 -4.9688 L56.6311 -7 Q56.6311 -9.9688 57.6702 -11.1094 Q58.7093 -12.25 60.4436 -12.25 Q62.178 -12.25 63.2093 -11.1406 Q64.2405 -10.0312 64.2718 -7.2031 L64.2718 -5.1562 ZM62.7249 -7.2656 Q62.7249 -9.3125 62.1468 -10.1562 Q61.5686 -11 60.4436 -11 Q59.3655 -11 58.7796 -10.1797 Q58.1936 -9.3594 58.178 -7.375 L58.178 -4.9219 Q58.178 -2.8906 58.7718 -1.9922 Q59.3655 -1.0938 60.4593 -1.0938 Q61.5843 -1.0938 62.1546 -1.9766 Q62.7249 -2.8594 62.7249 -4.8438 L62.7249 -7.2656 Z"
         id="path58" />
    </g>
    <g
       style="stroke-linecap:butt; fill:rgb(0,114,189); text-rendering:geometricPrecision; image-rendering:optimizeQuality; color-rendering:optimizeQuality; stroke-linejoin:round; stroke:rgb(0,114,189); color-interpolation:linearRGB; stroke-width:2.6667;"
       id="g59">
      <line
         y2="226.4528"
         style="fill:none;"
         x1="376"
         x2="416"
         y1="226.4528"
         id="line58" />
    </g>
    <g
       transform="translate(419,254)"
       style="font-size:16.8px; text-rendering:geometricPrecision; color-rendering:optimizeQuality; image-rendering:optimizeQuality; font-family:'mwb_cmmi10'; color-interpolation:linearRGB;"
       id="g60">
      <path
         style="stroke:none;"
         d="M2.7656 2.6406 Q2.7969 2.4531 3 2.4531 Q3.0156 2.4531 3.3203 2.6172 Q3.625 2.7812 3.9922 2.9141 Q4.3594 3.0469 4.7188 3.0469 Q5.0312 3.0469 5.25 2.7734 Q5.4688 2.5 5.4688 2.1875 Q5.4688 1.75 5 1.5625 L2.1094 0.4375 Q1.3594 0.1562 0.875 -0.4219 Q0.3906 -1 0.3906 -1.7344 Q0.3906 -2.3906 0.7422 -3.1016 Q1.0938 -3.8125 1.6406 -4.3906 Q2.1875 -4.9688 2.8125 -5.3281 Q2.3125 -5.625 2.0312 -6.0938 Q1.75 -6.5625 1.75 -7.125 Q1.75 -7.7188 1.9922 -8.2344 Q2.2344 -8.75 2.6641 -9.1719 Q3.0938 -9.5938 3.6172 -9.8906 Q4.1406 -10.1875 4.6719 -10.3281 Q4.5938 -10.6875 4.5938 -10.9688 Q4.5938 -11.8906 4.9531 -11.8906 Q5.0312 -11.8906 5.1016 -11.8203 Q5.1719 -11.75 5.1719 -11.6562 Q5.1719 -11.5781 5.125 -11.2969 Q5.0781 -11.0156 5.0781 -10.9531 Q5.0781 -10.6562 5.1562 -10.4375 Q5.5938 -10.5312 6 -10.5312 Q7.5625 -10.5312 7.5625 -10.0469 Q7.5625 -9.4688 5.8281 -9.4688 Q5.2969 -9.4688 4.9688 -9.8281 Q4.4688 -9.5781 4.0547 -9.125 Q3.6406 -8.6719 3.4062 -8.1094 Q3.1719 -7.5469 3.1719 -6.9688 Q3.1719 -6.1719 3.6406 -5.6875 Q4.2344 -5.9062 4.8438 -5.9062 Q6.4062 -5.9062 6.4062 -5.4219 Q6.4062 -4.8438 4.6719 -4.8438 Q3.9688 -4.8438 3.3438 -5.0625 Q2.5938 -4.6562 1.9609 -3.8281 Q1.3281 -3 1.3281 -2.2188 Q1.3281 -1.7344 1.6875 -1.3516 Q2.0469 -0.9688 2.5781 -0.75 L5.5938 0.4219 Q5.9844 0.5781 6.2266 0.9062 Q6.4688 1.2344 6.4688 1.6562 Q6.4688 2.3438 5.9375 2.9141 Q5.4062 3.4844 4.7031 3.4844 Q4.4844 3.4844 4 3.3672 Q3.5156 3.25 3.1406 3.0625 Q2.7656 2.875 2.7656 2.6406 ZM4.1562 -5.375 Q4.375 -5.2812 4.7031 -5.2812 Q5.5312 -5.2812 5.8906 -5.3906 Q5.5625 -5.4531 4.8281 -5.4531 Q4.5469 -5.4531 4.1562 -5.375 ZM5.4531 -10.0156 Q5.6094 -9.9062 5.875 -9.9062 Q6.6875 -9.9062 7.0469 -10.0156 L5.4531 -10.0156 Z"
         id="path59" />
    </g>
    <g
       transform="translate(427,254)"
       style="font-size:16.8px; text-rendering:geometricPrecision; color-rendering:optimizeQuality; image-rendering:optimizeQuality; font-family:'SansSerif'; color-interpolation:linearRGB;"
       id="g61">
      <path
         style="stroke:none;"
         d="M10.6782 -12.0938 L5.6469 1.0312 L4.3188 1.0312 L9.3657 -12.0938 L10.6782 -12.0938 ZM23.9834 -1.2969 L23.9834 0 L16.6552 0 L16.6552 -12.0938 L18.249 -12.0938 L18.249 -1.2969 L23.9834 -1.2969 ZM36.637 -8.0938 L36.637 -6.75 L29.7151 -6.75 L29.7151 -8.0938 L36.637 -8.0938 ZM36.637 -4.6562 L36.637 -3.3125 L29.7151 -3.3125 L29.7151 -4.6562 L36.637 -4.6562 ZM50.4158 -5.1562 Q50.4158 -2.1875 49.3923 -1.0078 Q48.3689 0.1719 46.6033 0.1719 Q44.9001 0.1719 43.8533 -0.9766 Q42.8064 -2.125 42.7751 -4.9688 L42.7751 -7 Q42.7751 -9.9688 43.8142 -11.1094 Q44.8533 -12.25 46.5876 -12.25 Q48.322 -12.25 49.3533 -11.1406 Q50.3845 -10.0312 50.4158 -7.2031 L50.4158 -5.1562 ZM48.8689 -7.2656 Q48.8689 -9.3125 48.2908 -10.1562 Q47.7126 -11 46.5876 -11 Q45.5095 -11 44.9236 -10.1797 Q44.3376 -9.3594 44.322 -7.375 L44.322 -4.9219 Q44.322 -2.8906 44.9158 -1.9922 Q45.5095 -1.0938 46.6033 -1.0938 Q47.7283 -1.0938 48.2986 -1.9766 Q48.8689 -2.8594 48.8689 -4.8438 L48.8689 -7.2656 ZM52.4564 -0.8125 Q52.4564 -1.2031 52.6986 -1.4766 Q52.9408 -1.75 53.4017 -1.75 Q53.8627 -1.75 54.1127 -1.4766 Q54.3627 -1.2031 54.3627 -0.8125 Q54.3627 -0.4375 54.1127 -0.1719 Q53.8627 0.0938 53.4017 0.0938 Q52.9408 0.0938 52.6986 -0.1719 Q52.4564 -0.4375 52.4564 -0.8125 ZM61.7249 -12.1562 L61.7249 0 L60.1936 0 L60.1936 -10.2344 L57.0999 -9.1094 L57.0999 -10.5 L61.4905 -12.1562 L61.7249 -12.1562 Z"
         id="path60" />
    </g>
    <g
       style="stroke-linecap:butt; fill:rgb(217,83,25); text-rendering:geometricPrecision; image-rendering:optimizeQuality; color-rendering:optimizeQuality; stroke-linejoin:round; stroke:rgb(217,83,25); color-interpolation:linearRGB; stroke-width:2.6667;"
       id="g62">
      <line
         y2="247.8717"
         style="fill:none;"
         x1="376"
         x2="416"
         y1="247.8717"
         id="line61" />
    </g>
    <g
       transform="translate(419,275)"
       style="font-size:16.8px; text-rendering:geometricPrecision; color-rendering:optimizeQuality; image-rendering:optimizeQuality; font-family:'mwb_cmmi10'; color-interpolation:linearRGB;"
       id="g63">
      <path
         style="stroke:none;"
         d="M2.7656 2.6406 Q2.7969 2.4531 3 2.4531 Q3.0156 2.4531 3.3203 2.6172 Q3.625 2.7812 3.9922 2.9141 Q4.3594 3.0469 4.7188 3.0469 Q5.0312 3.0469 5.25 2.7734 Q5.4688 2.5 5.4688 2.1875 Q5.4688 1.75 5 1.5625 L2.1094 0.4375 Q1.3594 0.1562 0.875 -0.4219 Q0.3906 -1 0.3906 -1.7344 Q0.3906 -2.3906 0.7422 -3.1016 Q1.0938 -3.8125 1.6406 -4.3906 Q2.1875 -4.9688 2.8125 -5.3281 Q2.3125 -5.625 2.0312 -6.0938 Q1.75 -6.5625 1.75 -7.125 Q1.75 -7.7188 1.9922 -8.2344 Q2.2344 -8.75 2.6641 -9.1719 Q3.0938 -9.5938 3.6172 -9.8906 Q4.1406 -10.1875 4.6719 -10.3281 Q4.5938 -10.6875 4.5938 -10.9688 Q4.5938 -11.8906 4.9531 -11.8906 Q5.0312 -11.8906 5.1016 -11.8203 Q5.1719 -11.75 5.1719 -11.6562 Q5.1719 -11.5781 5.125 -11.2969 Q5.0781 -11.0156 5.0781 -10.9531 Q5.0781 -10.6562 5.1562 -10.4375 Q5.5938 -10.5312 6 -10.5312 Q7.5625 -10.5312 7.5625 -10.0469 Q7.5625 -9.4688 5.8281 -9.4688 Q5.2969 -9.4688 4.9688 -9.8281 Q4.4688 -9.5781 4.0547 -9.125 Q3.6406 -8.6719 3.4062 -8.1094 Q3.1719 -7.5469 3.1719 -6.9688 Q3.1719 -6.1719 3.6406 -5.6875 Q4.2344 -5.9062 4.8438 -5.9062 Q6.4062 -5.9062 6.4062 -5.4219 Q6.4062 -4.8438 4.6719 -4.8438 Q3.9688 -4.8438 3.3438 -5.0625 Q2.5938 -4.6562 1.9609 -3.8281 Q1.3281 -3 1.3281 -2.2188 Q1.3281 -1.7344 1.6875 -1.3516 Q2.0469 -0.9688 2.5781 -0.75 L5.5938 0.4219 Q5.9844 0.5781 6.2266 0.9062 Q6.4688 1.2344 6.4688 1.6562 Q6.4688 2.3438 5.9375 2.9141 Q5.4062 3.4844 4.7031 3.4844 Q4.4844 3.4844 4 3.3672 Q3.5156 3.25 3.1406 3.0625 Q2.7656 2.875 2.7656 2.6406 ZM4.1562 -5.375 Q4.375 -5.2812 4.7031 -5.2812 Q5.5312 -5.2812 5.8906 -5.3906 Q5.5625 -5.4531 4.8281 -5.4531 Q4.5469 -5.4531 4.1562 -5.375 ZM5.4531 -10.0156 Q5.6094 -9.9062 5.875 -9.9062 Q6.6875 -9.9062 7.0469 -10.0156 L5.4531 -10.0156 Z"
         id="path62" />
    </g>
    <g
       transform="translate(427,275)"
       style="font-size:16.8px; text-rendering:geometricPrecision; color-rendering:optimizeQuality; image-rendering:optimizeQuality; font-family:'SansSerif'; color-interpolation:linearRGB;"
       id="g64">
      <path
         style="stroke:none;"
         d="M10.6782 -12.0938 L5.6469 1.0312 L4.3188 1.0312 L9.3657 -12.0938 L10.6782 -12.0938 ZM23.9834 -1.2969 L23.9834 0 L16.6552 0 L16.6552 -12.0938 L18.249 -12.0938 L18.249 -1.2969 L23.9834 -1.2969 ZM36.637 -8.0938 L36.637 -6.75 L29.7151 -6.75 L29.7151 -8.0938 L36.637 -8.0938 ZM36.637 -4.6562 L36.637 -3.3125 L29.7151 -3.3125 L29.7151 -4.6562 L36.637 -4.6562 ZM50.4158 -5.1562 Q50.4158 -2.1875 49.3923 -1.0078 Q48.3689 0.1719 46.6033 0.1719 Q44.9001 0.1719 43.8533 -0.9766 Q42.8064 -2.125 42.7751 -4.9688 L42.7751 -7 Q42.7751 -9.9688 43.8142 -11.1094 Q44.8533 -12.25 46.5876 -12.25 Q48.322 -12.25 49.3533 -11.1406 Q50.3845 -10.0312 50.4158 -7.2031 L50.4158 -5.1562 ZM48.8689 -7.2656 Q48.8689 -9.3125 48.2908 -10.1562 Q47.7126 -11 46.5876 -11 Q45.5095 -11 44.9236 -10.1797 Q44.3376 -9.3594 44.322 -7.375 L44.322 -4.9219 Q44.322 -2.8906 44.9158 -1.9922 Q45.5095 -1.0938 46.6033 -1.0938 Q47.7283 -1.0938 48.2986 -1.9766 Q48.8689 -2.8594 48.8689 -4.8438 L48.8689 -7.2656 ZM52.4564 -0.8125 Q52.4564 -1.2031 52.6986 -1.4766 Q52.9408 -1.75 53.4017 -1.75 Q53.8627 -1.75 54.1127 -1.4766 Q54.3627 -1.2031 54.3627 -0.8125 Q54.3627 -0.4375 54.1127 -0.1719 Q53.8627 0.0938 53.4017 0.0938 Q52.9408 0.0938 52.6986 -0.1719 Q52.4564 -0.4375 52.4564 -0.8125 ZM64.5999 -1.2656 L64.5999 0 L56.6936 0 L56.6936 -1.1094 L60.7874 -5.6719 Q61.803 -6.8125 62.1546 -7.4844 Q62.5061 -8.1562 62.5061 -8.8438 Q62.5061 -9.7344 61.9593 -10.3594 Q61.4124 -10.9844 60.3968 -10.9844 Q59.1936 -10.9844 58.5921 -10.2969 Q57.9905 -9.6094 57.9905 -8.5312 L56.4593 -8.5312 Q56.4593 -10.0625 57.4671 -11.1562 Q58.4749 -12.25 60.3968 -12.25 Q62.1155 -12.25 63.0843 -11.3594 Q64.053 -10.4688 64.053 -9.0156 Q64.053 -7.9531 63.3968 -6.8828 Q62.7405 -5.8125 61.7718 -4.7656 L58.5374 -1.2656 L64.5999 -1.2656 Z"
         id="path63" />
    </g>
    <g
       style="stroke-linecap:butt; fill:rgb(237,177,32); text-rendering:geometricPrecision; image-rendering:optimizeQuality; color-rendering:optimizeQuality; stroke-linejoin:round; stroke:rgb(237,177,32); color-interpolation:linearRGB; stroke-width:2.6667;"
       id="g65">
      <line
         y2="269.2906"
         style="fill:none;"
         x1="376"
         x2="416"
         y1="269.2906"
         id="line64" />
    </g>
    <g
       transform="translate(419,297)"
       style="font-size:16.8px; text-rendering:geometricPrecision; color-rendering:optimizeQuality; image-rendering:optimizeQuality; font-family:'mwb_cmmi10'; color-interpolation:linearRGB;"
       id="g66">
      <path
         style="stroke:none;"
         d="M2.7656 2.6406 Q2.7969 2.4531 3 2.4531 Q3.0156 2.4531 3.3203 2.6172 Q3.625 2.7812 3.9922 2.9141 Q4.3594 3.0469 4.7188 3.0469 Q5.0312 3.0469 5.25 2.7734 Q5.4688 2.5 5.4688 2.1875 Q5.4688 1.75 5 1.5625 L2.1094 0.4375 Q1.3594 0.1562 0.875 -0.4219 Q0.3906 -1 0.3906 -1.7344 Q0.3906 -2.3906 0.7422 -3.1016 Q1.0938 -3.8125 1.6406 -4.3906 Q2.1875 -4.9688 2.8125 -5.3281 Q2.3125 -5.625 2.0312 -6.0938 Q1.75 -6.5625 1.75 -7.125 Q1.75 -7.7188 1.9922 -8.2344 Q2.2344 -8.75 2.6641 -9.1719 Q3.0938 -9.5938 3.6172 -9.8906 Q4.1406 -10.1875 4.6719 -10.3281 Q4.5938 -10.6875 4.5938 -10.9688 Q4.5938 -11.8906 4.9531 -11.8906 Q5.0312 -11.8906 5.1016 -11.8203 Q5.1719 -11.75 5.1719 -11.6562 Q5.1719 -11.5781 5.125 -11.2969 Q5.0781 -11.0156 5.0781 -10.9531 Q5.0781 -10.6562 5.1562 -10.4375 Q5.5938 -10.5312 6 -10.5312 Q7.5625 -10.5312 7.5625 -10.0469 Q7.5625 -9.4688 5.8281 -9.4688 Q5.2969 -9.4688 4.9688 -9.8281 Q4.4688 -9.5781 4.0547 -9.125 Q3.6406 -8.6719 3.4062 -8.1094 Q3.1719 -7.5469 3.1719 -6.9688 Q3.1719 -6.1719 3.6406 -5.6875 Q4.2344 -5.9062 4.8438 -5.9062 Q6.4062 -5.9062 6.4062 -5.4219 Q6.4062 -4.8438 4.6719 -4.8438 Q3.9688 -4.8438 3.3438 -5.0625 Q2.5938 -4.6562 1.9609 -3.8281 Q1.3281 -3 1.3281 -2.2188 Q1.3281 -1.7344 1.6875 -1.3516 Q2.0469 -0.9688 2.5781 -0.75 L5.5938 0.4219 Q5.9844 0.5781 6.2266 0.9062 Q6.4688 1.2344 6.4688 1.6562 Q6.4688 2.3438 5.9375 2.9141 Q5.4062 3.4844 4.7031 3.4844 Q4.4844 3.4844 4 3.3672 Q3.5156 3.25 3.1406 3.0625 Q2.7656 2.875 2.7656 2.6406 ZM4.1562 -5.375 Q4.375 -5.2812 4.7031 -5.2812 Q5.5312 -5.2812 5.8906 -5.3906 Q5.5625 -5.4531 4.8281 -5.4531 Q4.5469 -5.4531 4.1562 -5.375 ZM5.4531 -10.0156 Q5.6094 -9.9062 5.875 -9.9062 Q6.6875 -9.9062 7.0469 -10.0156 L5.4531 -10.0156 Z"
         id="path65" />
    </g>
    <g
       transform="translate(427,297)"
       style="font-size:16.8px; text-rendering:geometricPrecision; color-rendering:optimizeQuality; image-rendering:optimizeQuality; font-family:'SansSerif'; color-interpolation:linearRGB;"
       id="g67">
      <path
         style="stroke:none;"
         d="M10.6782 -12.0938 L5.6469 1.0312 L4.3188 1.0312 L9.3657 -12.0938 L10.6782 -12.0938 ZM23.9834 -1.2969 L23.9834 0 L16.6552 0 L16.6552 -12.0938 L18.249 -12.0938 L18.249 -1.2969 L23.9834 -1.2969 ZM36.637 -8.0938 L36.637 -6.75 L29.7151 -6.75 L29.7151 -8.0938 L36.637 -8.0938 ZM36.637 -4.6562 L36.637 -3.3125 L29.7151 -3.3125 L29.7151 -4.6562 L36.637 -4.6562 ZM50.4158 -5.1562 Q50.4158 -2.1875 49.3923 -1.0078 Q48.3689 0.1719 46.6033 0.1719 Q44.9001 0.1719 43.8533 -0.9766 Q42.8064 -2.125 42.7751 -4.9688 L42.7751 -7 Q42.7751 -9.9688 43.8142 -11.1094 Q44.8533 -12.25 46.5876 -12.25 Q48.322 -12.25 49.3533 -11.1406 Q50.3845 -10.0312 50.4158 -7.2031 L50.4158 -5.1562 ZM48.8689 -7.2656 Q48.8689 -9.3125 48.2908 -10.1562 Q47.7126 -11 46.5876 -11 Q45.5095 -11 44.9236 -10.1797 Q44.3376 -9.3594 44.322 -7.375 L44.322 -4.9219 Q44.322 -2.8906 44.9158 -1.9922 Q45.5095 -1.0938 46.6033 -1.0938 Q47.7283 -1.0938 48.2986 -1.9766 Q48.8689 -2.8594 48.8689 -4.8438 L48.8689 -7.2656 ZM52.4564 -0.8125 Q52.4564 -1.2031 52.6986 -1.4766 Q52.9408 -1.75 53.4017 -1.75 Q53.8627 -1.75 54.1127 -1.4766 Q54.3627 -1.2031 54.3627 -0.8125 Q54.3627 -0.4375 54.1127 -0.1719 Q53.8627 0.0938 53.4017 0.0938 Q52.9408 0.0938 52.6986 -0.1719 Q52.4564 -0.4375 52.4564 -0.8125 ZM58.928 -5.5312 L58.928 -6.7969 L60.053 -6.7969 Q61.2405 -6.8125 61.8186 -7.3984 Q62.3968 -7.9844 62.3968 -8.8594 Q62.3968 -10.9844 60.2874 -10.9844 Q59.3186 -10.9844 58.7093 -10.4297 Q58.0999 -9.875 58.0999 -8.9219 L56.5686 -8.9219 Q56.5686 -10.3125 57.5921 -11.2812 Q58.6155 -12.25 60.2874 -12.25 Q61.928 -12.25 62.9358 -11.3828 Q63.9436 -10.5156 63.9436 -8.8281 Q63.9436 -8.1562 63.4905 -7.3906 Q63.0374 -6.625 62.0374 -6.2031 Q63.2561 -5.8125 63.6936 -5 Q64.1311 -4.1875 64.1311 -3.375 Q64.1311 -1.6719 63.0374 -0.75 Q61.9436 0.1719 60.303 0.1719 Q58.7249 0.1719 57.5921 -0.7031 Q56.4593 -1.5781 56.4593 -3.2031 L58.0061 -3.2031 Q58.0061 -2.2344 58.6233 -1.6641 Q59.2405 -1.0938 60.303 -1.0938 Q61.3499 -1.0938 61.9671 -1.6484 Q62.5843 -2.2031 62.5843 -3.3359 Q62.5843 -4.4688 61.889 -5 Q61.1936 -5.5312 60.0218 -5.5312 L58.928 -5.5312 Z"
         id="path66" />
    </g>
    <g
       style="stroke-linecap:butt; fill:rgb(126,47,142); text-rendering:geometricPrecision; image-rendering:optimizeQuality; color-rendering:optimizeQuality; stroke-linejoin:round; stroke:rgb(126,47,142); color-interpolation:linearRGB; stroke-width:2.6667;"
       id="g68">
      <line
         y2="290.7094"
         style="fill:none;"
         x1="376"
         x2="416"
         y1="290.7094"
         id="line67" />
    </g>
    <g
       transform="translate(419,318)"
       style="font-size:16.8px; text-rendering:geometricPrecision; color-rendering:optimizeQuality; image-rendering:optimizeQuality; font-family:'mwb_cmmi10'; color-interpolation:linearRGB;"
       id="g69">
      <path
         style="stroke:none;"
         d="M2.7656 2.6406 Q2.7969 2.4531 3 2.4531 Q3.0156 2.4531 3.3203 2.6172 Q3.625 2.7812 3.9922 2.9141 Q4.3594 3.0469 4.7188 3.0469 Q5.0312 3.0469 5.25 2.7734 Q5.4688 2.5 5.4688 2.1875 Q5.4688 1.75 5 1.5625 L2.1094 0.4375 Q1.3594 0.1562 0.875 -0.4219 Q0.3906 -1 0.3906 -1.7344 Q0.3906 -2.3906 0.7422 -3.1016 Q1.0938 -3.8125 1.6406 -4.3906 Q2.1875 -4.9688 2.8125 -5.3281 Q2.3125 -5.625 2.0312 -6.0938 Q1.75 -6.5625 1.75 -7.125 Q1.75 -7.7188 1.9922 -8.2344 Q2.2344 -8.75 2.6641 -9.1719 Q3.0938 -9.5938 3.6172 -9.8906 Q4.1406 -10.1875 4.6719 -10.3281 Q4.5938 -10.6875 4.5938 -10.9688 Q4.5938 -11.8906 4.9531 -11.8906 Q5.0312 -11.8906 5.1016 -11.8203 Q5.1719 -11.75 5.1719 -11.6562 Q5.1719 -11.5781 5.125 -11.2969 Q5.0781 -11.0156 5.0781 -10.9531 Q5.0781 -10.6562 5.1562 -10.4375 Q5.5938 -10.5312 6 -10.5312 Q7.5625 -10.5312 7.5625 -10.0469 Q7.5625 -9.4688 5.8281 -9.4688 Q5.2969 -9.4688 4.9688 -9.8281 Q4.4688 -9.5781 4.0547 -9.125 Q3.6406 -8.6719 3.4062 -8.1094 Q3.1719 -7.5469 3.1719 -6.9688 Q3.1719 -6.1719 3.6406 -5.6875 Q4.2344 -5.9062 4.8438 -5.9062 Q6.4062 -5.9062 6.4062 -5.4219 Q6.4062 -4.8438 4.6719 -4.8438 Q3.9688 -4.8438 3.3438 -5.0625 Q2.5938 -4.6562 1.9609 -3.8281 Q1.3281 -3 1.3281 -2.2188 Q1.3281 -1.7344 1.6875 -1.3516 Q2.0469 -0.9688 2.5781 -0.75 L5.5938 0.4219 Q5.9844 0.5781 6.2266 0.9062 Q6.4688 1.2344 6.4688 1.6562 Q6.4688 2.3438 5.9375 2.9141 Q5.4062 3.4844 4.7031 3.4844 Q4.4844 3.4844 4 3.3672 Q3.5156 3.25 3.1406 3.0625 Q2.7656 2.875 2.7656 2.6406 ZM4.1562 -5.375 Q4.375 -5.2812 4.7031 -5.2812 Q5.5312 -5.2812 5.8906 -5.3906 Q5.5625 -5.4531 4.8281 -5.4531 Q4.5469 -5.4531 4.1562 -5.375 ZM5.4531 -10.0156 Q5.6094 -9.9062 5.875 -9.9062 Q6.6875 -9.9062 7.0469 -10.0156 L5.4531 -10.0156 Z"
         id="path68" />
    </g>
    <g
       transform="translate(427,318)"
       style="font-size:16.8px; text-rendering:geometricPrecision; color-rendering:optimizeQuality; image-rendering:optimizeQuality; font-family:'SansSerif'; color-interpolation:linearRGB;"
       id="g70">
      <path
         style="stroke:none;"
         d="M10.6782 -12.0938 L5.6469 1.0312 L4.3188 1.0312 L9.3657 -12.0938 L10.6782 -12.0938 ZM23.9834 -1.2969 L23.9834 0 L16.6552 0 L16.6552 -12.0938 L18.249 -12.0938 L18.249 -1.2969 L23.9834 -1.2969 ZM36.637 -8.0938 L36.637 -6.75 L29.7151 -6.75 L29.7151 -8.0938 L36.637 -8.0938 ZM36.637 -4.6562 L36.637 -3.3125 L29.7151 -3.3125 L29.7151 -4.6562 L36.637 -4.6562 ZM50.4158 -5.1562 Q50.4158 -2.1875 49.3923 -1.0078 Q48.3689 0.1719 46.6033 0.1719 Q44.9001 0.1719 43.8533 -0.9766 Q42.8064 -2.125 42.7751 -4.9688 L42.7751 -7 Q42.7751 -9.9688 43.8142 -11.1094 Q44.8533 -12.25 46.5876 -12.25 Q48.322 -12.25 49.3533 -11.1406 Q50.3845 -10.0312 50.4158 -7.2031 L50.4158 -5.1562 ZM48.8689 -7.2656 Q48.8689 -9.3125 48.2908 -10.1562 Q47.7126 -11 46.5876 -11 Q45.5095 -11 44.9236 -10.1797 Q44.3376 -9.3594 44.322 -7.375 L44.322 -4.9219 Q44.322 -2.8906 44.9158 -1.9922 Q45.5095 -1.0938 46.6033 -1.0938 Q47.7283 -1.0938 48.2986 -1.9766 Q48.8689 -2.8594 48.8689 -4.8438 L48.8689 -7.2656 ZM52.4564 -0.8125 Q52.4564 -1.2031 52.6986 -1.4766 Q52.9408 -1.75 53.4017 -1.75 Q53.8627 -1.75 54.1127 -1.4766 Q54.3627 -1.2031 54.3627 -0.8125 Q54.3627 -0.4375 54.1127 -0.1719 Q53.8627 0.0938 53.4017 0.0938 Q52.9408 0.0938 52.6986 -0.1719 Q52.4564 -0.4375 52.4564 -0.8125 ZM56.1155 -3.7031 L61.5374 -12.0938 L63.1624 -12.0938 L63.1624 -4.0625 L64.8499 -4.0625 L64.8499 -2.8125 L63.1624 -2.8125 L63.1624 0 L61.6311 0 L61.6311 -2.8125 L56.1155 -2.8125 L56.1155 -3.7031 ZM57.8655 -4.0625 L61.6311 -4.0625 L61.6311 -10 L61.4436 -9.6562 L57.8655 -4.0625 Z"
         id="path69" />
    </g>
    <g
       style="stroke-linecap:butt; fill:rgb(119,172,48); text-rendering:geometricPrecision; image-rendering:optimizeQuality; color-rendering:optimizeQuality; stroke-linejoin:round; stroke:rgb(119,172,48); color-interpolation:linearRGB; stroke-width:2.6667;"
       id="g71">
      <line
         y2="312.1283"
         style="fill:none;"
         x1="376"
         x2="416"
         y1="312.1283"
         id="line70" />
    </g>
    <g
       transform="translate(419,340)"
       style="font-size:16.8px; text-rendering:geometricPrecision; color-rendering:optimizeQuality; image-rendering:optimizeQuality; font-family:'mwb_cmmi10'; color-interpolation:linearRGB;"
       id="g72">
      <path
         style="stroke:none;"
         d="M2.7656 2.6406 Q2.7969 2.4531 3 2.4531 Q3.0156 2.4531 3.3203 2.6172 Q3.625 2.7812 3.9922 2.9141 Q4.3594 3.0469 4.7188 3.0469 Q5.0312 3.0469 5.25 2.7734 Q5.4688 2.5 5.4688 2.1875 Q5.4688 1.75 5 1.5625 L2.1094 0.4375 Q1.3594 0.1562 0.875 -0.4219 Q0.3906 -1 0.3906 -1.7344 Q0.3906 -2.3906 0.7422 -3.1016 Q1.0938 -3.8125 1.6406 -4.3906 Q2.1875 -4.9688 2.8125 -5.3281 Q2.3125 -5.625 2.0312 -6.0938 Q1.75 -6.5625 1.75 -7.125 Q1.75 -7.7188 1.9922 -8.2344 Q2.2344 -8.75 2.6641 -9.1719 Q3.0938 -9.5938 3.6172 -9.8906 Q4.1406 -10.1875 4.6719 -10.3281 Q4.5938 -10.6875 4.5938 -10.9688 Q4.5938 -11.8906 4.9531 -11.8906 Q5.0312 -11.8906 5.1016 -11.8203 Q5.1719 -11.75 5.1719 -11.6562 Q5.1719 -11.5781 5.125 -11.2969 Q5.0781 -11.0156 5.0781 -10.9531 Q5.0781 -10.6562 5.1562 -10.4375 Q5.5938 -10.5312 6 -10.5312 Q7.5625 -10.5312 7.5625 -10.0469 Q7.5625 -9.4688 5.8281 -9.4688 Q5.2969 -9.4688 4.9688 -9.8281 Q4.4688 -9.5781 4.0547 -9.125 Q3.6406 -8.6719 3.4062 -8.1094 Q3.1719 -7.5469 3.1719 -6.9688 Q3.1719 -6.1719 3.6406 -5.6875 Q4.2344 -5.9062 4.8438 -5.9062 Q6.4062 -5.9062 6.4062 -5.4219 Q6.4062 -4.8438 4.6719 -4.8438 Q3.9688 -4.8438 3.3438 -5.0625 Q2.5938 -4.6562 1.9609 -3.8281 Q1.3281 -3 1.3281 -2.2188 Q1.3281 -1.7344 1.6875 -1.3516 Q2.0469 -0.9688 2.5781 -0.75 L5.5938 0.4219 Q5.9844 0.5781 6.2266 0.9062 Q6.4688 1.2344 6.4688 1.6562 Q6.4688 2.3438 5.9375 2.9141 Q5.4062 3.4844 4.7031 3.4844 Q4.4844 3.4844 4 3.3672 Q3.5156 3.25 3.1406 3.0625 Q2.7656 2.875 2.7656 2.6406 ZM4.1562 -5.375 Q4.375 -5.2812 4.7031 -5.2812 Q5.5312 -5.2812 5.8906 -5.3906 Q5.5625 -5.4531 4.8281 -5.4531 Q4.5469 -5.4531 4.1562 -5.375 ZM5.4531 -10.0156 Q5.6094 -9.9062 5.875 -9.9062 Q6.6875 -9.9062 7.0469 -10.0156 L5.4531 -10.0156 Z"
         id="path71" />
    </g>
    <g
       transform="translate(427,340)"
       style="font-size:16.8px; text-rendering:geometricPrecision; color-rendering:optimizeQuality; image-rendering:optimizeQuality; font-family:'SansSerif'; color-interpolation:linearRGB;"
       id="g73">
      <path
         style="stroke:none;"
         d="M10.6782 -12.0938 L5.6469 1.0312 L4.3188 1.0312 L9.3657 -12.0938 L10.6782 -12.0938 ZM23.9834 -1.2969 L23.9834 0 L16.6552 0 L16.6552 -12.0938 L18.249 -12.0938 L18.249 -1.2969 L23.9834 -1.2969 ZM36.637 -8.0938 L36.637 -6.75 L29.7151 -6.75 L29.7151 -8.0938 L36.637 -8.0938 ZM36.637 -4.6562 L36.637 -3.3125 L29.7151 -3.3125 L29.7151 -4.6562 L36.637 -4.6562 ZM50.4158 -5.1562 Q50.4158 -2.1875 49.3923 -1.0078 Q48.3689 0.1719 46.6033 0.1719 Q44.9001 0.1719 43.8533 -0.9766 Q42.8064 -2.125 42.7751 -4.9688 L42.7751 -7 Q42.7751 -9.9688 43.8142 -11.1094 Q44.8533 -12.25 46.5876 -12.25 Q48.322 -12.25 49.3533 -11.1406 Q50.3845 -10.0312 50.4158 -7.2031 L50.4158 -5.1562 ZM48.8689 -7.2656 Q48.8689 -9.3125 48.2908 -10.1562 Q47.7126 -11 46.5876 -11 Q45.5095 -11 44.9236 -10.1797 Q44.3376 -9.3594 44.322 -7.375 L44.322 -4.9219 Q44.322 -2.8906 44.9158 -1.9922 Q45.5095 -1.0938 46.6033 -1.0938 Q47.7283 -1.0938 48.2986 -1.9766 Q48.8689 -2.8594 48.8689 -4.8438 L48.8689 -7.2656 ZM52.4564 -0.8125 Q52.4564 -1.2031 52.6986 -1.4766 Q52.9408 -1.75 53.4017 -1.75 Q53.8627 -1.75 54.1127 -1.4766 Q54.3627 -1.2031 54.3627 -0.8125 Q54.3627 -0.4375 54.1127 -0.1719 Q53.8627 0.0938 53.4017 0.0938 Q52.9408 0.0938 52.6986 -0.1719 Q52.4564 -0.4375 52.4564 -0.8125 ZM58.6311 -5.75 L57.3968 -6.0625 L58.0061 -12.0938 L64.2093 -12.0938 L64.2093 -10.6719 L59.303 -10.6719 L58.9436 -7.375 Q59.8499 -7.9062 60.9593 -7.9062 Q62.6311 -7.9062 63.5921 -6.8047 Q64.553 -5.7031 64.553 -3.8594 Q64.553 -2.1094 63.6077 -0.9688 Q62.6624 0.1719 60.7405 0.1719 Q59.2718 0.1719 58.1936 -0.6562 Q57.1155 -1.4844 56.9593 -3.1719 L58.4124 -3.1719 Q58.7093 -1.0938 60.7405 -1.0938 Q61.8186 -1.0938 62.4202 -1.8359 Q63.0218 -2.5781 63.0218 -3.8281 Q63.0218 -4.9688 62.389 -5.75 Q61.7561 -6.5312 60.5999 -6.5312 Q59.8343 -6.5312 59.4358 -6.3203 Q59.0374 -6.1094 58.6311 -5.75 Z"
         id="path72" />
    </g>
    <g
       style="stroke-linecap:butt; fill:rgb(77,190,238); text-rendering:geometricPrecision; image-rendering:optimizeQuality; color-rendering:optimizeQuality; stroke-linejoin:round; stroke:rgb(77,190,238); color-interpolation:linearRGB; stroke-width:2.6667;"
       id="g74">
      <line
         y2="333.5472"
         style="fill:none;"
         x1="376"
         x2="416"
         y1="333.5472"
         id="line73" />
    </g>
    <g
       style="stroke-linecap:butt; fill:rgb(38,38,38); text-rendering:geometricPrecision; color-rendering:optimizeQuality; image-rendering:optimizeQuality; stroke:rgb(38,38,38); color-interpolation:linearRGB; stroke-width:0.6667;"
       id="g75">
      <path
         d="M372 346 L372 214 L497 214 L497 346 Z"
         style="fill:none; fill-rule:evenodd;"
         id="path74" />
    </g>
  </g>
  <g
     transform="translate(252.2859,28.5526)"
     style="font-style:normal;font-weight:bold;font-size:20.5333px;font-family:SansSerif;color-interpolation:linearRGB;fill:#000000;fill-opacity:1;stroke:#000000;stroke-width:1;stroke-linecap:square;stroke-linejoin:miter;stroke-miterlimit:10;stroke-dasharray:none;stroke-dashoffset:0;stroke-opacity:1;color-rendering:optimizeQuality;image-rendering:optimizeQuality;shape-rendering:auto;text-rendering:geometricPrecision"
     id="g54-6-2">
    <path
       style="stroke:none"
       d="M 23.1515,-8.4844 V -6 h -9.6094 v -14.9375 h 3.0938 v 12.4531 z m 10.7584,-7.5781 v 2.4063 H 24.738 v -2.4063 z m 0,4.4375 v 2.4062 H 24.738 v -2.4062 z m 12.2337,-0.5625 c 0,2.25 -0.460933,3.8776 -1.3828,4.8828 -0.921933,1.0052 -2.1355,1.5078 -3.6407,1.5078 -1.5052,0 -2.723933,-0.5026 -3.6562,-1.5078 -0.932333,-1.0052 -1.3985,-2.6328 -1.3985,-4.8828 v -2.5937 c 0,-2.2396 0.463567,-3.8594 1.3907,-4.8594 0.927067,-1 2.1406,-1.5 3.6406,-1.5 1.5,0 2.713533,0.4974 3.6406,1.4922 0.927067,0.9948 1.395833,2.601567 1.4063,4.8203 z m -2.9688,-3 c 0,-1.322933 -0.179667,-2.2474 -0.539,-2.7734 -0.3594,-0.526067 -0.872433,-0.7891 -1.5391,-0.7891 -0.645867,0 -1.151067,0.2578 -1.5156,0.7734 -0.3646,0.515667 -0.5469,1.419333 -0.5469,2.711 v 3.4844 c 0,1.333333 0.1823,2.2656 0.5469,2.7968 0.364533,0.5312667 0.880133,0.7969 1.5468,0.7969 0.645867,0 1.1485,-0.2604333 1.5079,-0.7813 0.359333,-0.5208 0.539,-1.432233 0.539,-2.7343 z m 4.9825,7.7187 c 0,-0.4478667 0.151067,-0.8254667 0.4532,-1.1328 0.302067,-0.3072667 0.7109,-0.4609 1.2265,-0.4609 0.515667,0 0.921933,0.1536333 1.2188,0.4609 0.296867,0.3073333 0.4453,0.6849333 0.4453,1.1328 0,0.4479333 -0.148433,0.8229333 -0.4453,1.125 -0.296867,0.3021333 -0.703133,0.4532 -1.2188,0.4532 -0.5156,0 -0.924433,-0.1510667 -1.2265,-0.4532 -0.302133,-0.3020667 -0.4532,-0.6770667 -0.4532,-1.125 z m 8.5062,-5.2968 -2.3594,-0.5782 0.8438,-7.5937 h 8.375 v 2.4687 H 57.601 l -0.375,3.2188 c 0.687533,-0.375 1.432333,-0.5625 2.2344,-0.5625 1.447933,0 2.567733,0.4401 3.3594,1.3203 0.791667,0.8802 1.1875,2.111967 1.1875,3.6953 0,1.3229333 -0.408867,2.487 -1.2266,3.4922 -0.817733,1.0052 -2.085967,1.5078 -3.8047,1.5078 -1.291667,0 -2.4479,-0.3828 -3.4687,-1.1484 -1.020867,-0.7656667 -1.546933,-1.8359667 -1.5782,-3.2109 h 2.9219 c 0.1354,1.3124667 0.838533,1.9687 2.1094,1.9687 0.7396,0 1.273467,-0.2682333 1.6016,-0.8047 0.328067,-0.5364667 0.4921,-1.195333 0.4921,-1.9766 0,-0.7812 -0.1953,-1.414 -0.5859,-1.8984 -0.3906,-0.4844 -0.997367,-0.7266 -1.8203,-0.7266 -0.541667,0 -0.958333,0.08857 -1.25,0.2657 -0.291667,0.177067 -0.536467,0.364567 -0.7344,0.5625 z"
       id="path53-7-9"
       sodipodi:nodetypes="cccccccccccccccccssssssssscssssssscssssssssssscscccccccssssssccscssscc" />
  </g>
</svg>
