<?xml version="1.0" encoding="UTF-8" standalone="no"?>
<svg
   style="fill-opacity:1; color-rendering:auto; color-interpolation:auto; text-rendering:auto; stroke:black; stroke-linecap:square; stroke-miterlimit:10; shape-rendering:auto; stroke-opacity:1; fill:black; stroke-dasharray:none; font-weight:normal; stroke-width:1; font-family:'Dialog'; font-style:normal; stroke-linejoin:miter; font-size:12px; stroke-dashoffset:0; image-rendering:auto;"
   width="560"
   height="420"
   version="1.1"
   id="svg76"
   sodipodi:docname="kham_py_L10_rw0001_H015_mgrp.svg"
   inkscape:version="1.4.2 (unknown)"
   xmlns:inkscape="http://www.inkscape.org/namespaces/inkscape"
   xmlns:sodipodi="http://sodipodi.sourceforge.net/DTD/sodipodi-0.dtd"
   xmlns="http://www.w3.org/2000/svg"
   xmlns:svg="http://www.w3.org/2000/svg">
  <sodipodi:namedview
     id="namedview76"
     pagecolor="#ffffff"
     bordercolor="#000000"
     borderopacity="0.25"
     inkscape:showpageshadow="2"
     inkscape:pageopacity="0.0"
     inkscape:pagecheckerboard="0"
     inkscape:deskcolor="#d1d1d1"
     inkscape:zoom="2.8385286"
     inkscape:cx="256.29476"
     inkscape:cy="104.80782"
     inkscape:window-width="1920"
     inkscape:window-height="1052"
     inkscape:window-x="0"
     inkscape:window-y="0"
     inkscape:window-maximized="1"
     inkscape:current-layer="svg76" />
  <!--Generated by the Batik Graphics2D SVG Generator-->
  <defs
     id="genericDefs" />
  <g
     id="g76">
    <defs
       id="defs1">
      <clipPath
         clipPathUnits="userSpaceOnUse"
         id="clipPath1">
        <path
           d="M0 0 L560 0 L560 420 L0 420 L0 0 Z"
           id="path1" />
      </clipPath>
    </defs>
    <g
       style="fill:white; stroke:white;"
       id="g1">
      <rect
         x="0"
         y="0"
         width="560"
         style="clip-path:url(#clipPath1); stroke:none;"
         height="420"
         clip-path="url(#clipPath1)"
         id="rect1" />
    </g>
    <g
       style="fill:white; text-rendering:optimizeSpeed; color-rendering:optimizeSpeed; image-rendering:optimizeSpeed; shape-rendering:crispEdges; stroke:white; color-interpolation:sRGB;"
       id="g2">
      <rect
         x="0"
         width="560"
         height="420"
         y="0"
         style="stroke:none;"
         id="rect2" />
      <path
         style="stroke:none;"
         d="M73 363 L507 363 L507 31 L73 31 Z"
         id="path2" />
    </g>
    <g
       style="stroke-linecap:butt; fill-opacity:0.149; fill:rgb(38,38,38); text-rendering:geometricPrecision; image-rendering:optimizeQuality; color-rendering:optimizeQuality; stroke-linejoin:round; stroke:rgb(38,38,38); color-interpolation:linearRGB; stroke-width:0.6667; stroke-opacity:0.149;"
       id="g7">
      <line
         y2="31"
         style="fill:none;"
         x1="73"
         x2="73"
         y1="363"
         id="line2" />
      <line
         y2="31"
         style="fill:none;"
         x1="159.8"
         x2="159.8"
         y1="363"
         id="line3" />
      <line
         y2="31"
         style="fill:none;"
         x1="246.6"
         x2="246.6"
         y1="363"
         id="line4" />
      <line
         y2="31"
         style="fill:none;"
         x1="333.4"
         x2="333.4"
         y1="363"
         id="line5" />
      <line
         y2="31"
         style="fill:none;"
         x1="420.2"
         x2="420.2"
         y1="363"
         id="line6" />
      <line
         y2="31"
         style="fill:none;"
         x1="507"
         x2="507"
         y1="363"
         id="line7" />
    </g>
    <g
       style="fill-opacity:0.251; color-rendering:optimizeQuality; color-interpolation:linearRGB; text-rendering:geometricPrecision; stroke:rgb(26,26,26); stroke-linecap:butt; stroke-miterlimit:1; stroke-opacity:0.251; fill:rgb(26,26,26); stroke-dasharray:1,3; stroke-width:0.6667; stroke-linejoin:bevel; image-rendering:optimizeQuality;"
       id="g15">
      <line
         y2="263.058"
         style="fill:none;"
         x1="507"
         x2="73"
         y1="263.058"
         id="line8" />
      <line
         y2="204.5957"
         style="fill:none;"
         x1="507"
         x2="73"
         y1="204.5957"
         id="line9" />
      <line
         y2="163.1161"
         style="fill:none;"
         x1="507"
         x2="73"
         y1="163.1161"
         id="line10" />
      <line
         y2="130.942"
         style="fill:none;"
         x1="507"
         x2="73"
         y1="130.942"
         id="line11" />
      <line
         y2="104.6538"
         style="fill:none;"
         x1="507"
         x2="73"
         y1="104.6538"
         id="line12" />
      <line
         y2="82.4275"
         style="fill:none;"
         x1="507"
         x2="73"
         y1="82.4275"
         id="line13" />
      <line
         y2="63.1741"
         style="fill:none;"
         x1="507"
         x2="73"
         y1="63.1741"
         id="line14" />
      <line
         y2="46.1915"
         style="fill:none;"
         x1="507"
         x2="73"
         y1="46.1915"
         id="line15" />
    </g>
    <g
       style="stroke-linecap:butt; fill-opacity:0.149; fill:rgb(38,38,38); text-rendering:geometricPrecision; image-rendering:optimizeQuality; color-rendering:optimizeQuality; stroke-linejoin:round; stroke:rgb(38,38,38); color-interpolation:linearRGB; stroke-width:0.6667; stroke-opacity:0.149;"
       id="g24">
      <line
         y2="363"
         style="fill:none;"
         x1="507"
         x2="73"
         y1="363"
         id="line16" />
      <line
         y2="31"
         style="fill:none;"
         x1="507"
         x2="73"
         y1="31"
         id="line17" />
      <line
         x1="73"
         x2="507"
         y1="363"
         style="stroke-linecap:square; fill-opacity:1; fill:none; stroke-opacity:1;"
         y2="363"
         id="line18" />
      <line
         x1="73"
         x2="73"
         y1="363"
         style="stroke-linecap:square; fill-opacity:1; fill:none; stroke-opacity:1;"
         y2="358.66"
         id="line19" />
      <line
         x1="159.8"
         x2="159.8"
         y1="363"
         style="stroke-linecap:square; fill-opacity:1; fill:none; stroke-opacity:1;"
         y2="358.66"
         id="line20" />
      <line
         x1="246.6"
         x2="246.6"
         y1="363"
         style="stroke-linecap:square; fill-opacity:1; fill:none; stroke-opacity:1;"
         y2="358.66"
         id="line21" />
      <line
         x1="333.4"
         x2="333.4"
         y1="363"
         style="stroke-linecap:square; fill-opacity:1; fill:none; stroke-opacity:1;"
         y2="358.66"
         id="line22" />
      <line
         x1="420.2"
         x2="420.2"
         y1="363"
         style="stroke-linecap:square; fill-opacity:1; fill:none; stroke-opacity:1;"
         y2="358.66"
         id="line23" />
      <line
         x1="507"
         x2="507"
         y1="363"
         style="stroke-linecap:square; fill-opacity:1; fill:none; stroke-opacity:1;"
         y2="358.66"
         id="line24" />
    </g>
    <g
       transform="translate(73,369.4)"
       style="font-size:18.6667px; fill:rgb(38,38,38); text-rendering:geometricPrecision; image-rendering:optimizeQuality; color-rendering:optimizeQuality; font-family:'SansSerif'; stroke:rgb(38,38,38); color-interpolation:linearRGB;"
       id="g25">
      <path
         style="stroke:none;"
         d="M4.1094 12.2344 Q4.1094 15.5469 2.9609 16.8672 Q1.8125 18.1875 -0.1562 18.1875 Q-2.0625 18.1875 -3.2266 16.9062 Q-4.3906 15.625 -4.4375 12.4375 L-4.4375 10.1719 Q-4.4375 6.8594 -3.2734 5.5859 Q-2.1094 4.3125 -0.1719 4.3125 Q1.7656 4.3125 2.9141 5.5469 Q4.0625 6.7812 4.1094 9.9531 L4.1094 12.2344 ZM2.375 9.875 Q2.375 7.5938 1.7266 6.6484 Q1.0781 5.7031 -0.1719 5.7031 Q-1.375 5.7031 -2.0312 6.625 Q-2.6875 7.5469 -2.7031 9.75 L-2.7031 12.5 Q-2.7031 14.7656 -2.0391 15.7734 Q-1.375 16.7812 -0.1562 16.7812 Q1.0938 16.7812 1.7344 15.7891 Q2.375 14.7969 2.375 12.5781 L2.375 9.875 Z"
         id="path24" />
    </g>
    <g
       transform="translate(159.8,369.4)"
       style="font-size:18.6667px; fill:rgb(38,38,38); text-rendering:geometricPrecision; image-rendering:optimizeQuality; color-rendering:optimizeQuality; font-family:'SansSerif'; stroke:rgb(38,38,38); color-interpolation:linearRGB;"
       id="g26">
      <path
         style="stroke:none;"
         d="M-3.3906 12.2344 Q-3.3906 15.5469 -4.5391 16.8672 Q-5.6875 18.1875 -7.6562 18.1875 Q-9.5625 18.1875 -10.7266 16.9062 Q-11.8906 15.625 -11.9375 12.4375 L-11.9375 10.1719 Q-11.9375 6.8594 -10.7734 5.5859 Q-9.6094 4.3125 -7.6719 4.3125 Q-5.7344 4.3125 -4.5859 5.5469 Q-3.4375 6.7812 -3.3906 9.9531 L-3.3906 12.2344 ZM-5.125 9.875 Q-5.125 7.5938 -5.7734 6.6484 Q-6.4219 5.7031 -7.6719 5.7031 Q-8.875 5.7031 -9.5312 6.625 Q-10.1875 7.5469 -10.2031 9.75 L-10.2031 12.5 Q-10.2031 14.7656 -9.5391 15.7734 Q-8.875 16.7812 -7.6562 16.7812 Q-6.4062 16.7812 -5.7656 15.7891 Q-5.125 14.7969 -5.125 12.5781 L-5.125 9.875 ZM-1.1712 17.0938 Q-1.1712 16.6562 -0.8978 16.3516 Q-0.6243 16.0469 -0.1087 16.0469 Q0.4069 16.0469 0.6803 16.3516 Q0.9538 16.6562 0.9538 17.0938 Q0.9538 17.5156 0.6803 17.8125 Q0.4069 18.1094 -0.1087 18.1094 Q-0.6243 18.1094 -0.8978 17.8125 Q-1.1712 17.5156 -1.1712 17.0938 ZM12.3729 16.5938 L12.3729 18 L3.5292 18 L3.5292 16.7656 L8.1229 11.6562 Q9.2479 10.3906 9.6463 9.6328 Q10.0448 8.875 10.0448 8.125 Q10.0448 7.125 9.4276 6.4219 Q8.8104 5.7188 7.6854 5.7188 Q6.326 5.7188 5.662 6.4844 Q4.9979 7.25 4.9979 8.4688 L3.2792 8.4688 Q3.2792 6.75 4.4042 5.5312 Q5.5292 4.3125 7.6854 4.3125 Q9.5917 4.3125 10.6776 5.3047 Q11.7635 6.2969 11.7635 7.9219 Q11.7635 9.1094 11.0292 10.3047 Q10.2948 11.5 9.2167 12.6719 L5.6073 16.5938 L12.3729 16.5938 Z"
         id="path25" />
    </g>
    <g
       transform="translate(246.6,369.4)"
       style="font-size:18.6667px; fill:rgb(38,38,38); text-rendering:geometricPrecision; image-rendering:optimizeQuality; color-rendering:optimizeQuality; font-family:'SansSerif'; stroke:rgb(38,38,38); color-interpolation:linearRGB;"
       id="g27">
      <path
         style="stroke:none;"
         d="M-3.3906 12.2344 Q-3.3906 15.5469 -4.5391 16.8672 Q-5.6875 18.1875 -7.6562 18.1875 Q-9.5625 18.1875 -10.7266 16.9062 Q-11.8906 15.625 -11.9375 12.4375 L-11.9375 10.1719 Q-11.9375 6.8594 -10.7734 5.5859 Q-9.6094 4.3125 -7.6719 4.3125 Q-5.7344 4.3125 -4.5859 5.5469 Q-3.4375 6.7812 -3.3906 9.9531 L-3.3906 12.2344 ZM-5.125 9.875 Q-5.125 7.5938 -5.7734 6.6484 Q-6.4219 5.7031 -7.6719 5.7031 Q-8.875 5.7031 -9.5312 6.625 Q-10.1875 7.5469 -10.2031 9.75 L-10.2031 12.5 Q-10.2031 14.7656 -9.5391 15.7734 Q-8.875 16.7812 -7.6562 16.7812 Q-6.4062 16.7812 -5.7656 15.7891 Q-5.125 14.7969 -5.125 12.5781 L-5.125 9.875 ZM-1.1712 17.0938 Q-1.1712 16.6562 -0.8978 16.3516 Q-0.6243 16.0469 -0.1087 16.0469 Q0.4069 16.0469 0.6803 16.3516 Q0.9538 16.6562 0.9538 17.0938 Q0.9538 17.5156 0.6803 17.8125 Q0.4069 18.1094 -0.1087 18.1094 Q-0.6243 18.1094 -0.8978 17.8125 Q-1.1712 17.5156 -1.1712 17.0938 ZM2.8885 13.8594 L8.951 4.4844 L10.7792 4.4844 L10.7792 13.4531 L12.6542 13.4531 L12.6542 14.8594 L10.7792 14.8594 L10.7792 18 L9.0604 18 L9.0604 14.8594 L2.8885 14.8594 L2.8885 13.8594 ZM4.8417 13.4531 L9.0604 13.4531 L9.0604 6.8281 L8.8417 7.2031 L4.8417 13.4531 Z"
         id="path26" />
    </g>
    <g
       transform="translate(333.4,369.4)"
       style="font-size:18.6667px; fill:rgb(38,38,38); text-rendering:geometricPrecision; image-rendering:optimizeQuality; color-rendering:optimizeQuality; font-family:'SansSerif'; stroke:rgb(38,38,38); color-interpolation:linearRGB;"
       id="g28">
      <path
         style="stroke:none;"
         d="M-3.3906 12.2344 Q-3.3906 15.5469 -4.5391 16.8672 Q-5.6875 18.1875 -7.6562 18.1875 Q-9.5625 18.1875 -10.7266 16.9062 Q-11.8906 15.625 -11.9375 12.4375 L-11.9375 10.1719 Q-11.9375 6.8594 -10.7734 5.5859 Q-9.6094 4.3125 -7.6719 4.3125 Q-5.7344 4.3125 -4.5859 5.5469 Q-3.4375 6.7812 -3.3906 9.9531 L-3.3906 12.2344 ZM-5.125 9.875 Q-5.125 7.5938 -5.7734 6.6484 Q-6.4219 5.7031 -7.6719 5.7031 Q-8.875 5.7031 -9.5312 6.625 Q-10.1875 7.5469 -10.2031 9.75 L-10.2031 12.5 Q-10.2031 14.7656 -9.5391 15.7734 Q-8.875 16.7812 -7.6562 16.7812 Q-6.4062 16.7812 -5.7656 15.7891 Q-5.125 14.7969 -5.125 12.5781 L-5.125 9.875 ZM-1.1712 17.0938 Q-1.1712 16.6562 -0.8978 16.3516 Q-0.6243 16.0469 -0.1087 16.0469 Q0.4069 16.0469 0.6803 16.3516 Q0.9538 16.6562 0.9538 17.0938 Q0.9538 17.5156 0.6803 17.8125 Q0.4069 18.1094 -0.1087 18.1094 Q-0.6243 18.1094 -0.8978 17.8125 Q-1.1712 17.5156 -1.1712 17.0938 ZM12.1698 13.5938 Q12.1698 15.5156 11.0995 16.8516 Q10.0292 18.1875 7.9823 18.1875 Q6.5292 18.1875 5.5604 17.4141 Q4.5917 16.6406 4.1151 15.4453 Q3.6385 14.25 3.6385 13 L3.6385 12.1875 Q3.6385 10.2969 4.1698 8.5234 Q4.701 6.75 6.1073 5.6094 Q7.5135 4.4688 10.1073 4.4688 L10.2635 4.4688 L10.2635 5.9375 Q8.4667 5.9375 7.4667 6.5625 Q6.4667 7.1875 5.9823 8.1953 Q5.4979 9.2031 5.3885 10.3594 Q6.4667 9.1406 8.2948 9.1406 Q9.6385 9.1406 10.4979 9.7891 Q11.3573 10.4375 11.7635 11.4609 Q12.1698 12.4844 12.1698 13.5938 ZM5.3573 13.0625 Q5.3573 14.8594 6.162 15.8125 Q6.9667 16.7656 7.9823 16.7656 Q9.1698 16.7656 9.826 15.8984 Q10.4823 15.0312 10.4823 13.6719 Q10.4823 12.4688 9.8729 11.5156 Q9.2635 10.5625 8.0135 10.5625 Q7.1229 10.5625 6.3885 11.1016 Q5.6542 11.6406 5.3573 12.4062 L5.3573 13.0625 Z"
         id="path27" />
    </g>
    <g
       transform="translate(420.2,369.4)"
       style="font-size:18.6667px; fill:rgb(38,38,38); text-rendering:geometricPrecision; image-rendering:optimizeQuality; color-rendering:optimizeQuality; font-family:'SansSerif'; stroke:rgb(38,38,38); color-interpolation:linearRGB;"
       id="g29">
      <path
         style="stroke:none;"
         d="M-3.3906 12.2344 Q-3.3906 15.5469 -4.5391 16.8672 Q-5.6875 18.1875 -7.6562 18.1875 Q-9.5625 18.1875 -10.7266 16.9062 Q-11.8906 15.625 -11.9375 12.4375 L-11.9375 10.1719 Q-11.9375 6.8594 -10.7734 5.5859 Q-9.6094 4.3125 -7.6719 4.3125 Q-5.7344 4.3125 -4.5859 5.5469 Q-3.4375 6.7812 -3.3906 9.9531 L-3.3906 12.2344 ZM-5.125 9.875 Q-5.125 7.5938 -5.7734 6.6484 Q-6.4219 5.7031 -7.6719 5.7031 Q-8.875 5.7031 -9.5312 6.625 Q-10.1875 7.5469 -10.2031 9.75 L-10.2031 12.5 Q-10.2031 14.7656 -9.5391 15.7734 Q-8.875 16.7812 -7.6562 16.7812 Q-6.4062 16.7812 -5.7656 15.7891 Q-5.125 14.7969 -5.125 12.5781 L-5.125 9.875 ZM-1.1712 17.0938 Q-1.1712 16.6562 -0.8978 16.3516 Q-0.6243 16.0469 -0.1087 16.0469 Q0.4069 16.0469 0.6803 16.3516 Q0.9538 16.6562 0.9538 17.0938 Q0.9538 17.5156 0.6803 17.8125 Q0.4069 18.1094 -0.1087 18.1094 Q-0.6243 18.1094 -0.8978 17.8125 Q-1.1712 17.5156 -1.1712 17.0938 ZM12.0292 14.3438 Q12.0292 16.2031 10.7948 17.1953 Q9.5604 18.1875 7.7401 18.1875 Q5.9198 18.1875 4.6854 17.1953 Q3.451 16.2031 3.451 14.3438 Q3.451 13.2188 4.0526 12.3516 Q4.6542 11.4844 5.701 11.0312 Q4.7948 10.5938 4.2713 9.7969 Q3.7479 9 3.7479 8.0156 Q3.7479 6.2344 4.8729 5.2734 Q5.9979 4.3125 7.7323 4.3125 Q9.4667 4.3125 10.5917 5.2734 Q11.7167 6.2344 11.7167 8.0156 Q11.7167 9.0156 11.1776 9.8047 Q10.6385 10.5938 9.7479 11.0312 Q10.7948 11.4844 11.412 12.3516 Q12.0292 13.2188 12.0292 14.3438 ZM9.9979 8.0312 Q9.9979 7.0312 9.3729 6.375 Q8.7479 5.7188 7.7323 5.7188 Q6.7167 5.7188 6.0995 6.3438 Q5.4823 6.9688 5.4823 8.0312 Q5.4823 9.0781 6.0995 9.7109 Q6.7167 10.3438 7.7323 10.3438 Q8.7479 10.3438 9.3729 9.7109 Q9.9979 9.0781 9.9979 8.0312 ZM10.3104 14.3125 Q10.3104 13.1719 9.5917 12.4609 Q8.8729 11.75 7.7167 11.75 Q6.5448 11.75 5.8495 12.4609 Q5.1542 13.1719 5.1542 14.3125 Q5.1542 15.4688 5.8495 16.125 Q6.5448 16.7812 7.7401 16.7812 Q8.9354 16.7812 9.6229 16.125 Q10.3104 15.4688 10.3104 14.3125 Z"
         id="path28" />
    </g>
    <g
       transform="translate(507,369.4)"
       style="font-size:18.6667px; fill:rgb(38,38,38); text-rendering:geometricPrecision; image-rendering:optimizeQuality; color-rendering:optimizeQuality; font-family:'SansSerif'; stroke:rgb(38,38,38); color-interpolation:linearRGB;"
       id="g30">
      <path
         style="stroke:none;"
         d="M1.2656 4.4219 L1.2656 18 L-0.4531 18 L-0.4531 6.5625 L-3.9062 7.8281 L-3.9062 6.2656 L1 4.4219 L1.2656 4.4219 Z"
         id="path29" />
    </g>
    <g
       transform="translate(290.0002,393.7333)"
       style="font-size:20.5333px; fill:rgb(38,38,38); text-rendering:geometricPrecision; image-rendering:optimizeQuality; color-rendering:optimizeQuality; font-family:'SansSerif'; stroke:rgb(38,38,38); color-interpolation:linearRGB;"
       id="g31">
      <path
         style="stroke:none;"
         d="M-2.7656 8.9062 L-0.3438 12.9375 L2.125 8.9062 L4.3438 8.9062 L0.7188 14.375 L4.4531 20 L2.2656 20 L-0.2969 15.8438 L-2.8594 20 L-5.0625 20 L-1.3438 14.375 L-4.9531 8.9062 L-2.7656 8.9062 Z"
         id="path30" />
    </g>
    <g
       style="fill:rgb(38,38,38); text-rendering:geometricPrecision; image-rendering:optimizeQuality; color-rendering:optimizeQuality; stroke-linejoin:round; stroke:rgb(38,38,38); color-interpolation:linearRGB; stroke-width:0.6667;"
       id="g43">
      <line
         y2="31"
         style="fill:none;"
         x1="73"
         x2="73"
         y1="363"
         id="line31" />
      <line
         y2="363"
         style="fill:none;"
         x1="73"
         x2="77.34"
         y1="363"
         id="line32" />
      <line
         y2="31"
         style="fill:none;"
         x1="73"
         x2="77.34"
         y1="31"
         id="line33" />
      <line
         y2="363"
         style="fill:none;"
         x1="73"
         x2="75.17"
         y1="363"
         id="line34" />
      <line
         y2="263.058"
         style="fill:none;"
         x1="73"
         x2="75.17"
         y1="263.058"
         id="line35" />
      <line
         y2="204.5957"
         style="fill:none;"
         x1="73"
         x2="75.17"
         y1="204.5957"
         id="line36" />
      <line
         y2="163.1161"
         style="fill:none;"
         x1="73"
         x2="75.17"
         y1="163.1161"
         id="line37" />
      <line
         y2="130.942"
         style="fill:none;"
         x1="73"
         x2="75.17"
         y1="130.942"
         id="line38" />
      <line
         y2="104.6538"
         style="fill:none;"
         x1="73"
         x2="75.17"
         y1="104.6538"
         id="line39" />
      <line
         y2="82.4275"
         style="fill:none;"
         x1="73"
         x2="75.17"
         y1="82.4275"
         id="line40" />
      <line
         y2="63.1741"
         style="fill:none;"
         x1="73"
         x2="75.17"
         y1="63.1741"
         id="line41" />
      <line
         y2="46.1915"
         style="fill:none;"
         x1="73"
         x2="75.17"
         y1="46.1915"
         id="line42" />
      <line
         y2="31"
         style="fill:none;"
         x1="73"
         x2="75.17"
         y1="31"
         id="line43" />
    </g>
    <g
       transform="translate(33,372)"
       style="font-size:18.6667px; fill:rgb(38,38,38); text-rendering:geometricPrecision; image-rendering:optimizeQuality; color-rendering:optimizeQuality; font-family:'SansSerif'; stroke:rgb(38,38,38); color-interpolation:linearRGB;"
       id="g44">
      <path
         style="stroke:none;"
         d="M6.7656 -13.5781 L6.7656 0 L5.0469 0 L5.0469 -11.4375 L1.5938 -10.1719 L1.5938 -11.7344 L6.5 -13.5781 L6.7656 -13.5781 ZM20.0944 -5.7656 Q20.0944 -2.4531 18.946 -1.1328 Q17.7975 0.1875 15.8288 0.1875 Q13.9225 0.1875 12.7585 -1.0938 Q11.5944 -2.375 11.5475 -5.5625 L11.5475 -7.8281 Q11.5475 -11.1406 12.7116 -12.4141 Q13.8757 -13.6875 15.8132 -13.6875 Q17.7507 -13.6875 18.8991 -12.4531 Q20.0475 -11.2188 20.0944 -8.0469 L20.0944 -5.7656 ZM18.36 -8.125 Q18.36 -10.4062 17.7116 -11.3516 Q17.0632 -12.2969 15.8132 -12.2969 Q14.61 -12.2969 13.9538 -11.375 Q13.2975 -10.4531 13.2819 -8.25 L13.2819 -5.5 Q13.2819 -3.2344 13.946 -2.2266 Q14.61 -1.2188 15.8288 -1.2188 Q17.0788 -1.2188 17.7194 -2.2109 Q18.36 -3.2031 18.36 -5.4219 L18.36 -8.125 Z"
         id="path43" />
    </g>
    <g
       transform="translate(54,363)"
       style="font-size:14.9333px; fill:rgb(38,38,38); text-rendering:geometricPrecision; image-rendering:optimizeQuality; color-rendering:optimizeQuality; font-family:'SansSerif'; stroke:rgb(38,38,38); color-interpolation:linearRGB;"
       id="g45">
      <path
         style="stroke:none;"
         d="M3.8594 -5.0938 L3.8594 -3.9844 L0.2812 -3.9844 L0.2812 -5.0938 L3.8594 -5.0938 ZM9.4633 -10.7188 L9.4633 0 L8.104 0 L8.104 -9.0312 L5.3696 -8.0312 L5.3696 -9.2656 L9.2446 -10.7188 L9.4633 -10.7188 Z"
         id="path44" />
    </g>
    <g
       transform="translate(37,40)"
       style="font-size:18.6667px; fill:rgb(38,38,38); text-rendering:geometricPrecision; image-rendering:optimizeQuality; color-rendering:optimizeQuality; font-family:'SansSerif'; stroke:rgb(38,38,38); color-interpolation:linearRGB;"
       id="g46">
      <path
         style="stroke:none;"
         d="M6.7656 -13.5781 L6.7656 0 L5.0469 0 L5.0469 -11.4375 L1.5938 -10.1719 L1.5938 -11.7344 L6.5 -13.5781 L6.7656 -13.5781 ZM20.0944 -5.7656 Q20.0944 -2.4531 18.946 -1.1328 Q17.7975 0.1875 15.8288 0.1875 Q13.9225 0.1875 12.7585 -1.0938 Q11.5944 -2.375 11.5475 -5.5625 L11.5475 -7.8281 Q11.5475 -11.1406 12.7116 -12.4141 Q13.8757 -13.6875 15.8132 -13.6875 Q17.7507 -13.6875 18.8991 -12.4531 Q20.0475 -11.2188 20.0944 -8.0469 L20.0944 -5.7656 ZM18.36 -8.125 Q18.36 -10.4062 17.7116 -11.3516 Q17.0632 -12.2969 15.8132 -12.2969 Q14.61 -12.2969 13.9538 -11.375 Q13.2975 -10.4531 13.2819 -8.25 L13.2819 -5.5 Q13.2819 -3.2344 13.946 -2.2266 Q14.61 -1.2188 15.8288 -1.2188 Q17.0788 -1.2188 17.7194 -2.2109 Q18.36 -3.2031 18.36 -5.4219 L18.36 -8.125 Z"
         id="path45" />
    </g>
    <g
       transform="translate(58,31)"
       style="font-size:14.9333px; fill:rgb(38,38,38); text-rendering:geometricPrecision; image-rendering:optimizeQuality; color-rendering:optimizeQuality; font-family:'SansSerif'; stroke:rgb(38,38,38); color-interpolation:linearRGB;"
       id="g47">
      <path
         style="stroke:none;"
         d="M7.5781 -4.5625 Q7.5781 -1.9375 6.6719 -0.8984 Q5.7656 0.1406 4.2188 0.1406 Q2.7031 0.1406 1.7891 -0.8672 Q0.875 -1.875 0.8438 -4.3906 L0.8438 -6.1875 Q0.8438 -8.7969 1.7578 -9.8047 Q2.6719 -10.8125 4.2031 -10.8125 Q5.7344 -10.8125 6.6406 -9.8359 Q7.5469 -8.8594 7.5781 -6.3438 L7.5781 -4.5625 ZM6.2188 -6.4062 Q6.2188 -8.2031 5.7031 -8.9531 Q5.1875 -9.7031 4.2031 -9.7031 Q3.25 -9.7031 2.7344 -8.9766 Q2.2188 -8.25 2.2031 -6.5156 L2.2031 -4.3438 Q2.2031 -2.5469 2.7266 -1.7578 Q3.25 -0.9688 4.2188 -0.9688 Q5.2031 -0.9688 5.7109 -1.75 Q6.2188 -2.5312 6.2188 -4.2812 L6.2188 -6.4062 Z"
         id="path46" />
    </g>
    <g
       transform="translate(28.6,196.9998) rotate(-90)"
       style="font-size:20.5333px; fill:rgb(38,38,38); text-rendering:geometricPrecision; image-rendering:optimizeQuality; color-rendering:optimizeQuality; font-family:'SansSerif'; stroke:rgb(38,38,38); color-interpolation:linearRGB;"
       id="g48">
      <path
         style="stroke:none;"
         d="M0.5156 -5.7969 Q-1.4844 -5.7969 -2.6562 -7.0781 L-2.6562 -1.7344 L-4.5625 -1.7344 L-4.5625 -17.0938 L-2.8281 -17.0938 L-2.7344 -15.875 Q-1.5625 -17.2969 0.4844 -17.2969 Q2.5781 -17.2969 3.6953 -15.7422 Q4.8125 -14.1875 4.8125 -11.6406 L4.8125 -11.4219 Q4.8125 -9 3.6953 -7.3984 Q2.5781 -5.7969 0.5156 -5.7969 ZM-0.0781 -15.7031 Q-1.7969 -15.7031 -2.6562 -14.1719 L-2.6562 -8.8594 Q-1.7812 -7.3594 -0.0469 -7.3594 Q1.4844 -7.3594 2.1953 -8.5703 Q2.9062 -9.7812 2.9062 -11.4219 L2.9062 -11.6406 Q2.9062 -13.2969 2.1953 -14.5 Q1.4844 -15.7031 -0.0781 -15.7031 Z"
         id="path47" />
    </g>
    <g
       style="stroke-linecap:butt; fill:rgb(0,114,189); text-rendering:geometricPrecision; image-rendering:optimizeQuality; color-rendering:optimizeQuality; stroke-linejoin:round; stroke:rgb(0,114,189); color-interpolation:linearRGB; stroke-width:2.6667;"
       id="g53">
      <path
         d="M75.5795 241.8769 L79.874 186.5346 L84.1684 164.7842 L88.4628 152.0498 L92.7572 143.3285 L97.0516 136.812 L101.3461 131.658 L105.6405 127.4106 L109.9349 123.7984 L114.2293 120.648 L118.5236 117.8441 L122.818 115.3064 L127.1124 112.9789 L131.4069 110.8216 L135.8271 108.7478 L140.296 106.8718 L144.6877 105.1328 L149.0793 103.4799 L153.471 101.8989 L157.8626 100.379 L162.2543 98.9123 L166.6459 97.4915 L171.0376 96.1117 L175.4292 94.7686 L179.8209 93.4583 L184.2125 92.1786 L188.6041 90.9263 L192.9958 89.6997 L197.3874 88.4967 L201.7791 87.3163 L206.1707 86.1567 L210.5624 85.0169 L214.954 83.8957 L219.3457 82.7921 L223.7373 81.7054 L228.129 80.6349 L232.521 79.5795 L236.9127 78.5389 L241.3043 77.5126 L245.696 76.4997 L250.0876 75.5 L254.4793 74.5127 L258.8709 73.5378 L263.2626 72.5745 L267.6542 71.6227 L272.0459 70.6819 L276.4375 69.7515 L280.8291 68.8318 L285.2208 67.922 L289.6124 67.022 L294.0041 66.1314 L298.3957 65.2501 L302.7874 64.3779 L307.179 63.5144 L311.5706 62.6594 L315.9623 61.8128 L320.3539 60.9743 L324.746 60.1439 L329.1377 59.3212 L333.5293 58.5059 L337.921 57.6982 L342.3126 56.8977 L346.7043 56.1043 L351.0959 55.3179 L355.4875 54.5383 L359.8792 53.7654 L364.2709 52.9991 L368.6625 52.2391 L373.0541 51.4854 L377.4458 50.7379 L381.8374 49.9967 L386.2291 49.2611 L390.6207 48.5316 L395.0124 47.8077 L399.404 47.0895 L403.7957 46.3768 L408.1873 45.6697 L412.5789 44.9677 L416.971 44.2711 L421.3627 43.5797 L425.7543 42.8934 L430.146 42.2121 L434.5376 41.5356 L438.9293 40.8641 L443.3209 40.1973 L447.7126 39.5351 L452.1042 38.8775 L456.4958 38.2244 L460.8875 37.5756 L465.2791 36.9313 L469.6708 36.2911 L474.0624 35.6548 L478.4541 35.0227 L482.8457 34.3943 L487.2374 33.7697 L491.629 33.1486 L496.0207 32.5308 L500.4123 31.9163 L504.804 31.3047"
         style="fill:none; fill-rule:evenodd;"
         id="path48" />
      <path
         d="M75.5795 314.6184 L79.874 258.3719 L84.1684 235.5888 L88.4628 221.7378 L92.7572 211.8524 L97.0516 204.1456 L101.3461 197.7881 L105.6405 192.3325 L109.9349 187.5127 L114.2293 183.1597 L118.5236 179.1616 L122.818 175.4409 L127.1124 171.9445 L131.4069 168.6364 L135.8271 165.3996 L140.296 162.4117 L144.6877 159.5874 L149.0793 156.8551 L153.471 154.2016 L157.8626 151.6164 L162.2543 149.0932 L166.6459 146.6261 L171.0376 144.2107 L175.4292 141.8438 L179.8209 139.5228 L184.2125 137.2446 L188.6041 135.0077 L192.9958 132.81 L197.3874 130.6501 L201.7791 128.5267 L206.1707 126.4383 L210.5624 124.3838 L214.954 122.3621 L219.3457 120.372 L223.7373 118.4127 L228.129 116.4828 L232.521 114.582 L236.9127 112.7093 L241.3043 110.8635 L245.696 109.0443 L250.0876 107.2508 L254.4793 105.4824 L258.8709 103.7382 L263.2626 102.0176 L267.6542 100.3202 L272.0459 98.6452 L276.4375 96.9921 L280.8291 95.3602 L285.2208 93.7493 L289.6124 92.1583 L294.0041 90.5872 L298.3957 89.0355 L302.7874 87.5025 L307.179 85.9877 L311.5706 84.4908 L315.9623 83.0116 L320.3539 81.5494 L324.746 80.1037 L329.1377 78.6743 L333.5293 77.2608 L337.921 75.863 L342.3126 74.4802 L346.7043 73.1122 L351.0959 71.7588 L355.4875 70.4195 L359.8792 69.0942 L364.2709 67.7823 L368.6625 66.4837 L373.0541 65.1982 L377.4458 63.9253 L381.8374 62.6648 L386.2291 61.4164 L390.6207 60.1799 L395.0124 58.955 L399.404 57.7416 L403.7957 56.5393 L408.1873 55.3479 L412.5789 54.1674 L416.971 52.997 L421.3627 51.8372 L425.7543 50.6874 L430.146 49.5473 L434.5376 48.4169 L438.9293 47.296 L443.3209 46.1843 L447.7126 45.0817 L452.1042 43.9879 L456.4958 42.9029 L460.8875 41.8266 L465.2791 40.7584 L469.6708 39.6987 L474.0624 38.6469 L478.4541 37.603 L482.8457 36.5668 L487.2374 35.5383 L491.629 34.5171 L496.0207 33.5033 L500.4123 32.4967 L504.804 31.4972"
         style="fill:none; fill-rule:evenodd; stroke:rgb(217,83,25);"
         id="path49" />
      <path
         d="M75.5795 321.3219 L79.874 265.0697 L84.1684 242.2783 L88.4628 228.4154 L92.7572 218.5144 L97.0516 210.7889 L101.3461 204.4099 L105.6405 198.9296 L109.9349 194.0819 L114.2293 189.6984 L118.5236 185.6671 L122.818 181.9104 L127.1124 178.3757 L131.4069 175.0269 L135.8271 171.7461 L140.296 168.7128 L144.6877 165.8419 L149.0793 163.0609 L153.471 160.3559 L157.8626 157.7181 L162.2543 155.1395 L166.6459 152.6154 L171.0376 150.1413 L175.4292 147.7137 L179.8209 145.3302 L184.2125 142.9885 L188.6041 140.6862 L192.9958 138.4218 L197.3874 136.194 L201.7791 134.0012 L206.1707 131.8425 L210.5624 129.7161 L214.954 127.6215 L219.3457 125.5575 L223.7373 123.5231 L228.129 121.5176 L232.521 119.5399 L236.9127 117.5894 L241.3043 115.6655 L245.696 113.7672 L250.0876 111.8938 L254.4793 110.0447 L258.8709 108.2195 L263.2626 106.4174 L267.6542 104.6377 L272.0459 102.88 L276.4375 101.1437 L280.8291 99.4284 L285.2208 97.7334 L289.6124 96.0585 L294.0041 94.4029 L298.3957 92.7665 L302.7874 91.1486 L307.179 89.5488 L311.5706 87.9669 L315.9623 86.4021 L320.3539 84.8546 L324.746 83.3236 L329.1377 81.809 L333.5293 80.3102 L337.921 78.8269 L342.3126 77.359 L346.7043 75.9061 L351.0959 74.4679 L355.4875 73.0441 L359.8792 71.6341 L364.2709 70.2381 L368.6625 68.8556 L373.0541 67.4864 L377.4458 66.1301 L381.8374 64.7866 L386.2291 63.4557 L390.6207 62.1372 L395.0124 60.8306 L399.404 59.5359 L403.7957 58.2528 L408.1873 56.9811 L412.5789 55.7207 L416.971 54.4712 L421.3627 53.2325 L425.7543 52.0045 L430.146 50.7871 L434.5376 49.5798 L438.9293 48.3825 L443.3209 47.1953 L447.7126 46.0178 L452.1042 44.8499 L456.4958 43.6915 L460.8875 42.5423 L465.2791 41.4021 L469.6708 40.2711 L474.0624 39.1489 L478.4541 38.0353 L482.8457 36.9303 L487.2374 35.8338 L491.629 34.7454 L496.0207 33.6654 L500.4123 32.5932 L504.804 31.5291"
         style="fill:none; fill-rule:evenodd; stroke:rgb(237,177,32);"
         id="path50" />
      <path
         d="M75.5795 321.9127 L79.874 265.6609 L84.1684 242.8681 L88.4628 229.0045 L92.7572 219.1021 L97.0516 211.3756 L101.3461 204.9942 L105.6405 199.5121 L109.9349 194.6621 L114.2293 190.2765 L118.5236 186.2419 L122.818 182.4823 L127.1124 178.9446 L131.4069 175.5922 L135.8271 172.3078 L140.296 169.2708 L144.6877 166.3962 L149.0793 163.6108 L153.471 160.9019 L157.8626 158.2594 L162.2543 155.6764 L166.6459 153.1476 L171.0376 150.6683 L175.4292 148.2359 L179.8209 145.8473 L184.2125 143.4998 L188.6041 141.1921 L192.9958 138.9223 L197.3874 136.6886 L201.7791 134.4901 L206.1707 132.3253 L210.5624 130.193 L214.954 128.0921 L219.3457 126.0216 L223.7373 123.981 L228.129 121.9689 L232.521 119.9847 L236.9127 118.0278 L241.3043 116.097 L245.696 114.1917 L250.0876 112.3116 L254.4793 110.4557 L258.8709 108.6233 L263.2626 106.8142 L267.6542 105.0272 L272.0459 103.2624 L276.4375 101.5189 L280.8291 99.7963 L285.2208 98.0942 L289.6124 96.4117 L294.0041 94.7489 L298.3957 93.1048 L302.7874 91.4794 L307.179 89.8722 L311.5706 88.2827 L315.9623 86.7106 L320.3539 85.1553 L324.746 83.6167 L329.1377 82.0946 L333.5293 80.5881 L337.921 79.0974 L342.3126 77.6218 L346.7043 76.1613 L351.0959 74.7154 L355.4875 73.2838 L359.8792 71.8663 L364.2709 70.4627 L368.6625 69.0726 L373.0541 67.6958 L377.4458 66.3321 L381.8374 64.9812 L386.2291 63.6428 L390.6207 62.3166 L395.0124 61.0027 L399.404 59.7005 L403.7957 58.4101 L408.1873 57.131 L412.5789 55.8633 L416.971 54.6065 L421.3627 53.3608 L425.7543 52.1257 L430.146 50.9011 L434.5376 49.6868 L438.9293 48.4824 L443.3209 47.2883 L447.7126 46.1039 L452.1042 44.9292 L456.4958 43.7639 L460.8875 42.608 L465.2791 41.4613 L469.6708 40.3237 L474.0624 39.1949 L478.4541 38.0751 L482.8457 36.9638 L487.2374 35.8609 L491.629 34.7664 L496.0207 33.6802 L500.4123 32.6021 L504.804 31.532"
         style="fill:none; fill-rule:evenodd; stroke:rgb(126,47,142);"
         id="path51" />
      <path
         d="M75.5795 321.9648 L79.874 265.713 L84.1684 242.9208 L88.4628 229.0563 L92.7572 219.1542 L97.0516 211.427 L101.3461 205.0458 L105.6405 199.5636 L109.9349 194.7133 L114.2293 190.3274 L118.5236 186.2927 L122.818 182.5331 L127.1124 178.9949 L131.4069 175.6421 L135.8271 172.3574 L140.296 169.32 L144.6877 166.4449 L149.0793 163.6592 L153.471 160.9502 L157.8626 158.3071 L162.2543 155.724 L166.6459 153.1944 L171.0376 150.715 L175.4292 148.282 L179.8209 145.8927 L184.2125 143.5451 L188.6041 141.2367 L192.9958 138.9665 L197.3874 136.7324 L201.7791 134.5333 L206.1707 132.3678 L210.5624 130.2349 L214.954 128.1336 L219.3457 126.0626 L223.7373 124.0214 L228.129 122.0087 L232.521 120.024 L236.9127 118.0663 L241.3043 116.135 L245.696 114.2292 L250.0876 112.3484 L254.4793 110.4919 L258.8709 108.6589 L263.2626 106.8491 L267.6542 105.0617 L272.0459 103.2962 L276.4375 101.5521 L280.8291 99.8288 L285.2208 98.1258 L289.6124 96.443 L294.0041 94.7794 L298.3957 93.1347 L302.7874 91.5086 L307.179 89.9009 L311.5706 88.3106 L315.9623 86.7377 L320.3539 85.182 L324.746 83.6427 L329.1377 82.1196 L333.5293 80.6127 L337.921 79.1212 L342.3126 77.6451 L346.7043 76.1838 L351.0959 74.7373 L355.4875 73.305 L359.8792 71.8868 L364.2709 70.4826 L368.6625 69.0918 L373.0541 67.7144 L377.4458 66.3499 L381.8374 64.9984 L386.2291 63.6592 L390.6207 62.3326 L395.0124 61.0178 L399.404 59.7151 L403.7957 58.4239 L408.1873 57.1444 L412.5789 55.8759 L416.971 54.6186 L421.3627 53.3722 L425.7543 52.1364 L430.146 50.9112 L434.5376 49.6961 L438.9293 48.4914 L443.3209 47.2965 L447.7126 46.1116 L452.1042 44.9361 L456.4958 43.7704 L460.8875 42.6138 L465.2791 41.4666 L469.6708 40.3285 L474.0624 39.1991 L478.4541 38.0786 L482.8457 36.9666 L487.2374 35.8633 L491.629 34.7682 L496.0207 33.6816 L500.4123 32.603 L504.804 31.5323"
         style="fill:none; fill-rule:evenodd; stroke:rgb(119,172,48);"
         id="path52" />
      <path
         d="M75.5795 321.9691 L79.874 265.7167 L84.1684 242.9245 L88.4628 229.0609 L92.7572 219.1584 L97.0516 211.431 L101.3461 205.0502 L105.6405 199.5673 L109.9349 194.7173 L114.2293 190.3313 L118.5236 186.2969 L122.818 182.5368 L127.1124 178.9989 L131.4069 175.646 L135.8271 172.3613 L140.296 169.3238 L144.6877 166.449 L149.0793 163.6632 L153.471 160.9537 L157.8626 158.311 L162.2543 155.7277 L166.6459 153.1984 L171.0376 150.7186 L175.4292 148.2856 L179.8209 145.8965 L184.2125 143.5486 L188.6041 141.2404 L192.9958 138.9699 L197.3874 136.736 L201.7791 134.5368 L206.1707 132.3713 L210.5624 130.2383 L214.954 128.137 L219.3457 126.0659 L223.7373 124.0247 L228.129 122.012 L232.521 120.0272 L236.9127 118.0694 L241.3043 116.1381 L245.696 114.2323 L250.0876 112.3514 L254.4793 110.4949 L258.8709 108.6618 L263.2626 106.852 L267.6542 105.0646 L272.0459 103.2988 L276.4375 101.5547 L280.8291 99.8313 L285.2208 98.1286 L289.6124 96.4455 L294.0041 94.7818 L298.3957 93.1372 L302.7874 91.511 L307.179 89.903 L311.5706 88.3128 L315.9623 86.7401 L320.3539 85.1841 L324.746 83.6448 L329.1377 82.1217 L333.5293 80.6147 L337.921 79.1232 L342.3126 77.6469 L346.7043 76.1856 L351.0959 74.7391 L355.4875 73.3068 L359.8792 71.8886 L364.2709 70.4842 L368.6625 69.0935 L373.0541 67.7159 L377.4458 66.3514 L381.8374 64.9997 L386.2291 63.6607 L390.6207 62.3338 L395.0124 61.019 L399.404 59.7164 L403.7957 58.4251 L408.1873 57.1454 L412.5789 55.8769 L416.971 54.6196 L421.3627 53.3731 L425.7543 52.1372 L430.146 50.912 L434.5376 49.6969 L438.9293 48.492 L443.3209 47.2971 L447.7126 46.1122 L452.1042 44.9368 L456.4958 43.7709 L460.8875 42.6143 L465.2791 41.4671 L469.6708 40.3288 L474.0624 39.1994 L478.4541 38.0789 L482.8457 36.9669 L487.2374 35.8635 L491.629 34.7684 L496.0207 33.6817 L500.4123 32.603 L504.804 31.5323"
         style="fill:none; fill-rule:evenodd; stroke:rgb(77,190,238);"
         id="path53" />
    </g>
    <g
       style="stroke-linecap:butt; text-rendering:geometricPrecision; image-rendering:optimizeQuality; color-rendering:optimizeQuality; stroke-linejoin:bevel; stroke-dasharray:8,8; color-interpolation:linearRGB; stroke-width:2.6667; stroke-miterlimit:1;"
       id="g55">
      <path
         d="M74.7476 363.0396 L74.816 358.8984 L75.0114 348.9506 L75.228 339.6451 L75.4678 330.9039 L75.7334 322.6624 L76.0277 314.8667 L76.3536 307.4709 L76.7146 300.4361 L77.1145 293.7286 L77.5574 287.3192 L78.048 281.1828 L78.5914 275.2968 L79.1933 269.6418 L79.8599 264.2001 L80.5984 258.9564 L81.4163 253.8968 L82.3223 249.0086 L83.3258 244.2808 L84.4374 239.7031 L85.6686 235.2663 L87.0323 230.9619 L88.5428 226.7823 L90.216 222.7205 L92.0692 218.7699 L94.1219 214.9247 L96.3956 211.1794 L98.9141 207.529 L101.7037 203.9687 L104.7935 200.4941 L108.216 197.1014 L112.0068 193.7866 L116.2058 190.5463 L120.8567 187.3773 L126.0083 184.2764 L131.7145 181.2408 L138.0349 178.2678 L138.1 178.239 L145.6286 173.1042 L153.1571 168.146 L160.6857 163.3526 L168.2143 158.7135 L175.7429 154.2189 L183.2714 149.8603 L190.8 145.6296 L198.3286 141.5195 L205.8571 137.5232 L213.3857 133.6348 L220.9143 129.8485 L228.4429 126.1591 L235.9714 122.5617 L243.5 119.0519 L251.0286 115.6255 L258.5572 112.2787 L266.0857 109.0078 L273.6143 105.8094 L281.1429 102.6804 L288.6714 99.618 L296.2 96.6192 L303.7286 93.6815 L311.2571 90.8024 L318.7857 87.9798 L326.3143 85.2113 L333.8429 82.495 L341.3714 79.8289 L348.9 77.2112 L356.4286 74.6402 L363.9572 72.1143 L371.4857 69.6318 L379.0143 67.1913 L386.5429 64.7915 L394.0714 62.431 L401.6 60.1084 L409.1286 57.8227 L416.6571 55.5727 L424.1857 53.3572 L431.7143 51.1753 L439.2429 49.0259 L446.7714 46.9081 L454.3 44.8209 L461.8286 42.7635 L469.3571 40.7351 L476.8857 38.7348 L484.4143 36.7618 L491.9428 34.8155 L499.4714 32.8951 L507 31"
         style="fill:none; fill-rule:evenodd;"
         id="path54" />
      <path
         d="M73.5649 242.6613 L73.7354 160.4784 L73.9572 118.9517 L74.246 93.5983 L74.6219 76.76 L75.1112 65.0405 L75.7482 56.6428 L76.5773 50.508 L77.6565 45.9663 L79.0614 42.5718 L80.8901 40.0173 L83.2704 38.0851 L86.3689 36.6182 L90.4022 35.5013 L95.6524 34.6491 L102.4864 33.9978 L111.3822 33.4994 L122.9618 33.1177 L138.0349 32.8252 L138.1 32.8242 L145.6286 32.7184 L153.1571 32.623 L160.6857 32.5363 L168.2143 32.4568 L175.7429 32.3834 L183.2714 32.3151 L190.8 32.2515 L198.3286 32.1918 L205.8571 32.1356 L213.3857 32.0825 L220.9143 32.0322 L228.4429 31.9845 L235.9714 31.939 L243.5 31.8955 L251.0286 31.854 L258.5572 31.8142 L266.0857 31.776 L273.6143 31.7392 L281.1429 31.7038 L288.6714 31.6697 L296.2 31.6368 L303.7286 31.605 L311.2571 31.5742 L318.7857 31.5443 L326.3143 31.5154 L333.8429 31.4873 L341.3714 31.46 L348.9 31.4335 L356.4286 31.4077 L363.9572 31.3826 L371.4857 31.3581 L379.0143 31.3343 L386.5429 31.311 L394.0714 31.2883 L401.6 31.2661 L409.1286 31.2444 L416.6571 31.2232 L424.1857 31.2025 L431.7143 31.1822 L439.2429 31.1623 L446.7714 31.1428 L454.3 31.1238 L461.8286 31.1051 L469.3571 31.0867 L476.8857 31.0687 L484.4143 31.0511 L491.9428 31.0337 L499.4714 31.0167 L507 31"
         style="fill:none; stroke-dasharray:8,2,4,2; fill-rule:evenodd;"
         id="path55" />
    </g>
    <g
       style="fill:white; text-rendering:optimizeSpeed; color-rendering:optimizeSpeed; image-rendering:optimizeSpeed; shape-rendering:crispEdges; stroke:white; color-interpolation:sRGB;"
       id="g56">
      <path
         style="stroke:none;"
         d="M497 346 L497 214 L372 214 L372 346 Z"
         id="path56" />
    </g>
    <g
       transform="translate(419,232)"
       style="font-size:16.8px; text-rendering:geometricPrecision; color-rendering:optimizeQuality; image-rendering:optimizeQuality; font-family:'mwb_cmmi10'; color-interpolation:linearRGB;"
       id="g57">
      <path
         style="stroke:none;"
         d="M2.7656 2.6406 Q2.7969 2.4531 3 2.4531 Q3.0156 2.4531 3.3203 2.6172 Q3.625 2.7812 3.9922 2.9141 Q4.3594 3.0469 4.7188 3.0469 Q5.0312 3.0469 5.25 2.7734 Q5.4688 2.5 5.4688 2.1875 Q5.4688 1.75 5 1.5625 L2.1094 0.4375 Q1.3594 0.1562 0.875 -0.4219 Q0.3906 -1 0.3906 -1.7344 Q0.3906 -2.3906 0.7422 -3.1016 Q1.0938 -3.8125 1.6406 -4.3906 Q2.1875 -4.9688 2.8125 -5.3281 Q2.3125 -5.625 2.0312 -6.0938 Q1.75 -6.5625 1.75 -7.125 Q1.75 -7.7188 1.9922 -8.2344 Q2.2344 -8.75 2.6641 -9.1719 Q3.0938 -9.5938 3.6172 -9.8906 Q4.1406 -10.1875 4.6719 -10.3281 Q4.5938 -10.6875 4.5938 -10.9688 Q4.5938 -11.8906 4.9531 -11.8906 Q5.0312 -11.8906 5.1016 -11.8203 Q5.1719 -11.75 5.1719 -11.6562 Q5.1719 -11.5781 5.125 -11.2969 Q5.0781 -11.0156 5.0781 -10.9531 Q5.0781 -10.6562 5.1562 -10.4375 Q5.5938 -10.5312 6 -10.5312 Q7.5625 -10.5312 7.5625 -10.0469 Q7.5625 -9.4688 5.8281 -9.4688 Q5.2969 -9.4688 4.9688 -9.8281 Q4.4688 -9.5781 4.0547 -9.125 Q3.6406 -8.6719 3.4062 -8.1094 Q3.1719 -7.5469 3.1719 -6.9688 Q3.1719 -6.1719 3.6406 -5.6875 Q4.2344 -5.9062 4.8438 -5.9062 Q6.4062 -5.9062 6.4062 -5.4219 Q6.4062 -4.8438 4.6719 -4.8438 Q3.9688 -4.8438 3.3438 -5.0625 Q2.5938 -4.6562 1.9609 -3.8281 Q1.3281 -3 1.3281 -2.2188 Q1.3281 -1.7344 1.6875 -1.3516 Q2.0469 -0.9688 2.5781 -0.75 L5.5938 0.4219 Q5.9844 0.5781 6.2266 0.9062 Q6.4688 1.2344 6.4688 1.6562 Q6.4688 2.3438 5.9375 2.9141 Q5.4062 3.4844 4.7031 3.4844 Q4.4844 3.4844 4 3.3672 Q3.5156 3.25 3.1406 3.0625 Q2.7656 2.875 2.7656 2.6406 ZM4.1562 -5.375 Q4.375 -5.2812 4.7031 -5.2812 Q5.5312 -5.2812 5.8906 -5.3906 Q5.5625 -5.4531 4.8281 -5.4531 Q4.5469 -5.4531 4.1562 -5.375 ZM5.4531 -10.0156 Q5.6094 -9.9062 5.875 -9.9062 Q6.6875 -9.9062 7.0469 -10.0156 L5.4531 -10.0156 Z"
         id="path57" />
    </g>
    <g
       transform="translate(427,232)"
       style="font-size:16.8px; text-rendering:geometricPrecision; color-rendering:optimizeQuality; image-rendering:optimizeQuality; font-family:'SansSerif'; color-interpolation:linearRGB;"
       id="g58">
      <path
         style="stroke:none;"
         d="M10.6782 -12.0938 L5.6469 1.0312 L4.3188 1.0312 L9.3657 -12.0938 L10.6782 -12.0938 ZM23.9834 -1.2969 L23.9834 0 L16.6552 0 L16.6552 -12.0938 L18.249 -12.0938 L18.249 -1.2969 L23.9834 -1.2969 ZM36.637 -8.0938 L36.637 -6.75 L29.7151 -6.75 L29.7151 -8.0938 L36.637 -8.0938 ZM36.637 -4.6562 L36.637 -3.3125 L29.7151 -3.3125 L29.7151 -4.6562 L36.637 -4.6562 ZM50.4158 -5.1562 Q50.4158 -2.1875 49.3923 -1.0078 Q48.3689 0.1719 46.6033 0.1719 Q44.9001 0.1719 43.8533 -0.9766 Q42.8064 -2.125 42.7751 -4.9688 L42.7751 -7 Q42.7751 -9.9688 43.8142 -11.1094 Q44.8533 -12.25 46.5876 -12.25 Q48.322 -12.25 49.3533 -11.1406 Q50.3845 -10.0312 50.4158 -7.2031 L50.4158 -5.1562 ZM48.8689 -7.2656 Q48.8689 -9.3125 48.2908 -10.1562 Q47.7126 -11 46.5876 -11 Q45.5095 -11 44.9236 -10.1797 Q44.3376 -9.3594 44.322 -7.375 L44.322 -4.9219 Q44.322 -2.8906 44.9158 -1.9922 Q45.5095 -1.0938 46.6033 -1.0938 Q47.7283 -1.0938 48.2986 -1.9766 Q48.8689 -2.8594 48.8689 -4.8438 L48.8689 -7.2656 ZM52.4564 -0.8125 Q52.4564 -1.2031 52.6986 -1.4766 Q52.9408 -1.75 53.4017 -1.75 Q53.8627 -1.75 54.1127 -1.4766 Q54.3627 -1.2031 54.3627 -0.8125 Q54.3627 -0.4375 54.1127 -0.1719 Q53.8627 0.0938 53.4017 0.0938 Q52.9408 0.0938 52.6986 -0.1719 Q52.4564 -0.4375 52.4564 -0.8125 ZM64.2718 -5.1562 Q64.2718 -2.1875 63.2483 -1.0078 Q62.2249 0.1719 60.4593 0.1719 Q58.7561 0.1719 57.7093 -0.9766 Q56.6624 -2.125 56.6311 -4.9688 L56.6311 -7 Q56.6311 -9.9688 57.6702 -11.1094 Q58.7093 -12.25 60.4436 -12.25 Q62.178 -12.25 63.2093 -11.1406 Q64.2405 -10.0312 64.2718 -7.2031 L64.2718 -5.1562 ZM62.7249 -7.2656 Q62.7249 -9.3125 62.1468 -10.1562 Q61.5686 -11 60.4436 -11 Q59.3655 -11 58.7796 -10.1797 Q58.1936 -9.3594 58.178 -7.375 L58.178 -4.9219 Q58.178 -2.8906 58.7718 -1.9922 Q59.3655 -1.0938 60.4593 -1.0938 Q61.5843 -1.0938 62.1546 -1.9766 Q62.7249 -2.8594 62.7249 -4.8438 L62.7249 -7.2656 Z"
         id="path58" />
    </g>
    <g
       style="stroke-linecap:butt; fill:rgb(0,114,189); text-rendering:geometricPrecision; image-rendering:optimizeQuality; color-rendering:optimizeQuality; stroke-linejoin:round; stroke:rgb(0,114,189); color-interpolation:linearRGB; stroke-width:2.6667;"
       id="g59">
      <line
         y2="226.4528"
         style="fill:none;"
         x1="376"
         x2="416"
         y1="226.4528"
         id="line58" />
    </g>
    <g
       transform="translate(419,254)"
       style="font-size:16.8px; text-rendering:geometricPrecision; color-rendering:optimizeQuality; image-rendering:optimizeQuality; font-family:'mwb_cmmi10'; color-interpolation:linearRGB;"
       id="g60">
      <path
         style="stroke:none;"
         d="M2.7656 2.6406 Q2.7969 2.4531 3 2.4531 Q3.0156 2.4531 3.3203 2.6172 Q3.625 2.7812 3.9922 2.9141 Q4.3594 3.0469 4.7188 3.0469 Q5.0312 3.0469 5.25 2.7734 Q5.4688 2.5 5.4688 2.1875 Q5.4688 1.75 5 1.5625 L2.1094 0.4375 Q1.3594 0.1562 0.875 -0.4219 Q0.3906 -1 0.3906 -1.7344 Q0.3906 -2.3906 0.7422 -3.1016 Q1.0938 -3.8125 1.6406 -4.3906 Q2.1875 -4.9688 2.8125 -5.3281 Q2.3125 -5.625 2.0312 -6.0938 Q1.75 -6.5625 1.75 -7.125 Q1.75 -7.7188 1.9922 -8.2344 Q2.2344 -8.75 2.6641 -9.1719 Q3.0938 -9.5938 3.6172 -9.8906 Q4.1406 -10.1875 4.6719 -10.3281 Q4.5938 -10.6875 4.5938 -10.9688 Q4.5938 -11.8906 4.9531 -11.8906 Q5.0312 -11.8906 5.1016 -11.8203 Q5.1719 -11.75 5.1719 -11.6562 Q5.1719 -11.5781 5.125 -11.2969 Q5.0781 -11.0156 5.0781 -10.9531 Q5.0781 -10.6562 5.1562 -10.4375 Q5.5938 -10.5312 6 -10.5312 Q7.5625 -10.5312 7.5625 -10.0469 Q7.5625 -9.4688 5.8281 -9.4688 Q5.2969 -9.4688 4.9688 -9.8281 Q4.4688 -9.5781 4.0547 -9.125 Q3.6406 -8.6719 3.4062 -8.1094 Q3.1719 -7.5469 3.1719 -6.9688 Q3.1719 -6.1719 3.6406 -5.6875 Q4.2344 -5.9062 4.8438 -5.9062 Q6.4062 -5.9062 6.4062 -5.4219 Q6.4062 -4.8438 4.6719 -4.8438 Q3.9688 -4.8438 3.3438 -5.0625 Q2.5938 -4.6562 1.9609 -3.8281 Q1.3281 -3 1.3281 -2.2188 Q1.3281 -1.7344 1.6875 -1.3516 Q2.0469 -0.9688 2.5781 -0.75 L5.5938 0.4219 Q5.9844 0.5781 6.2266 0.9062 Q6.4688 1.2344 6.4688 1.6562 Q6.4688 2.3438 5.9375 2.9141 Q5.4062 3.4844 4.7031 3.4844 Q4.4844 3.4844 4 3.3672 Q3.5156 3.25 3.1406 3.0625 Q2.7656 2.875 2.7656 2.6406 ZM4.1562 -5.375 Q4.375 -5.2812 4.7031 -5.2812 Q5.5312 -5.2812 5.8906 -5.3906 Q5.5625 -5.4531 4.8281 -5.4531 Q4.5469 -5.4531 4.1562 -5.375 ZM5.4531 -10.0156 Q5.6094 -9.9062 5.875 -9.9062 Q6.6875 -9.9062 7.0469 -10.0156 L5.4531 -10.0156 Z"
         id="path59" />
    </g>
    <g
       transform="translate(427,254)"
       style="font-size:16.8px; text-rendering:geometricPrecision; color-rendering:optimizeQuality; image-rendering:optimizeQuality; font-family:'SansSerif'; color-interpolation:linearRGB;"
       id="g61">
      <path
         style="stroke:none;"
         d="M10.6782 -12.0938 L5.6469 1.0312 L4.3188 1.0312 L9.3657 -12.0938 L10.6782 -12.0938 ZM23.9834 -1.2969 L23.9834 0 L16.6552 0 L16.6552 -12.0938 L18.249 -12.0938 L18.249 -1.2969 L23.9834 -1.2969 ZM36.637 -8.0938 L36.637 -6.75 L29.7151 -6.75 L29.7151 -8.0938 L36.637 -8.0938 ZM36.637 -4.6562 L36.637 -3.3125 L29.7151 -3.3125 L29.7151 -4.6562 L36.637 -4.6562 ZM50.4158 -5.1562 Q50.4158 -2.1875 49.3923 -1.0078 Q48.3689 0.1719 46.6033 0.1719 Q44.9001 0.1719 43.8533 -0.9766 Q42.8064 -2.125 42.7751 -4.9688 L42.7751 -7 Q42.7751 -9.9688 43.8142 -11.1094 Q44.8533 -12.25 46.5876 -12.25 Q48.322 -12.25 49.3533 -11.1406 Q50.3845 -10.0312 50.4158 -7.2031 L50.4158 -5.1562 ZM48.8689 -7.2656 Q48.8689 -9.3125 48.2908 -10.1562 Q47.7126 -11 46.5876 -11 Q45.5095 -11 44.9236 -10.1797 Q44.3376 -9.3594 44.322 -7.375 L44.322 -4.9219 Q44.322 -2.8906 44.9158 -1.9922 Q45.5095 -1.0938 46.6033 -1.0938 Q47.7283 -1.0938 48.2986 -1.9766 Q48.8689 -2.8594 48.8689 -4.8438 L48.8689 -7.2656 ZM52.4564 -0.8125 Q52.4564 -1.2031 52.6986 -1.4766 Q52.9408 -1.75 53.4017 -1.75 Q53.8627 -1.75 54.1127 -1.4766 Q54.3627 -1.2031 54.3627 -0.8125 Q54.3627 -0.4375 54.1127 -0.1719 Q53.8627 0.0938 53.4017 0.0938 Q52.9408 0.0938 52.6986 -0.1719 Q52.4564 -0.4375 52.4564 -0.8125 ZM61.7249 -12.1562 L61.7249 0 L60.1936 0 L60.1936 -10.2344 L57.0999 -9.1094 L57.0999 -10.5 L61.4905 -12.1562 L61.7249 -12.1562 Z"
         id="path60" />
    </g>
    <g
       style="stroke-linecap:butt; fill:rgb(217,83,25); text-rendering:geometricPrecision; image-rendering:optimizeQuality; color-rendering:optimizeQuality; stroke-linejoin:round; stroke:rgb(217,83,25); color-interpolation:linearRGB; stroke-width:2.6667;"
       id="g62">
      <line
         y2="247.8717"
         style="fill:none;"
         x1="376"
         x2="416"
         y1="247.8717"
         id="line61" />
    </g>
    <g
       transform="translate(419,275)"
       style="font-size:16.8px; text-rendering:geometricPrecision; color-rendering:optimizeQuality; image-rendering:optimizeQuality; font-family:'mwb_cmmi10'; color-interpolation:linearRGB;"
       id="g63">
      <path
         style="stroke:none;"
         d="M2.7656 2.6406 Q2.7969 2.4531 3 2.4531 Q3.0156 2.4531 3.3203 2.6172 Q3.625 2.7812 3.9922 2.9141 Q4.3594 3.0469 4.7188 3.0469 Q5.0312 3.0469 5.25 2.7734 Q5.4688 2.5 5.4688 2.1875 Q5.4688 1.75 5 1.5625 L2.1094 0.4375 Q1.3594 0.1562 0.875 -0.4219 Q0.3906 -1 0.3906 -1.7344 Q0.3906 -2.3906 0.7422 -3.1016 Q1.0938 -3.8125 1.6406 -4.3906 Q2.1875 -4.9688 2.8125 -5.3281 Q2.3125 -5.625 2.0312 -6.0938 Q1.75 -6.5625 1.75 -7.125 Q1.75 -7.7188 1.9922 -8.2344 Q2.2344 -8.75 2.6641 -9.1719 Q3.0938 -9.5938 3.6172 -9.8906 Q4.1406 -10.1875 4.6719 -10.3281 Q4.5938 -10.6875 4.5938 -10.9688 Q4.5938 -11.8906 4.9531 -11.8906 Q5.0312 -11.8906 5.1016 -11.8203 Q5.1719 -11.75 5.1719 -11.6562 Q5.1719 -11.5781 5.125 -11.2969 Q5.0781 -11.0156 5.0781 -10.9531 Q5.0781 -10.6562 5.1562 -10.4375 Q5.5938 -10.5312 6 -10.5312 Q7.5625 -10.5312 7.5625 -10.0469 Q7.5625 -9.4688 5.8281 -9.4688 Q5.2969 -9.4688 4.9688 -9.8281 Q4.4688 -9.5781 4.0547 -9.125 Q3.6406 -8.6719 3.4062 -8.1094 Q3.1719 -7.5469 3.1719 -6.9688 Q3.1719 -6.1719 3.6406 -5.6875 Q4.2344 -5.9062 4.8438 -5.9062 Q6.4062 -5.9062 6.4062 -5.4219 Q6.4062 -4.8438 4.6719 -4.8438 Q3.9688 -4.8438 3.3438 -5.0625 Q2.5938 -4.6562 1.9609 -3.8281 Q1.3281 -3 1.3281 -2.2188 Q1.3281 -1.7344 1.6875 -1.3516 Q2.0469 -0.9688 2.5781 -0.75 L5.5938 0.4219 Q5.9844 0.5781 6.2266 0.9062 Q6.4688 1.2344 6.4688 1.6562 Q6.4688 2.3438 5.9375 2.9141 Q5.4062 3.4844 4.7031 3.4844 Q4.4844 3.4844 4 3.3672 Q3.5156 3.25 3.1406 3.0625 Q2.7656 2.875 2.7656 2.6406 ZM4.1562 -5.375 Q4.375 -5.2812 4.7031 -5.2812 Q5.5312 -5.2812 5.8906 -5.3906 Q5.5625 -5.4531 4.8281 -5.4531 Q4.5469 -5.4531 4.1562 -5.375 ZM5.4531 -10.0156 Q5.6094 -9.9062 5.875 -9.9062 Q6.6875 -9.9062 7.0469 -10.0156 L5.4531 -10.0156 Z"
         id="path62" />
    </g>
    <g
       transform="translate(427,275)"
       style="font-size:16.8px; text-rendering:geometricPrecision; color-rendering:optimizeQuality; image-rendering:optimizeQuality; font-family:'SansSerif'; color-interpolation:linearRGB;"
       id="g64">
      <path
         style="stroke:none;"
         d="M10.6782 -12.0938 L5.6469 1.0312 L4.3188 1.0312 L9.3657 -12.0938 L10.6782 -12.0938 ZM23.9834 -1.2969 L23.9834 0 L16.6552 0 L16.6552 -12.0938 L18.249 -12.0938 L18.249 -1.2969 L23.9834 -1.2969 ZM36.637 -8.0938 L36.637 -6.75 L29.7151 -6.75 L29.7151 -8.0938 L36.637 -8.0938 ZM36.637 -4.6562 L36.637 -3.3125 L29.7151 -3.3125 L29.7151 -4.6562 L36.637 -4.6562 ZM50.4158 -5.1562 Q50.4158 -2.1875 49.3923 -1.0078 Q48.3689 0.1719 46.6033 0.1719 Q44.9001 0.1719 43.8533 -0.9766 Q42.8064 -2.125 42.7751 -4.9688 L42.7751 -7 Q42.7751 -9.9688 43.8142 -11.1094 Q44.8533 -12.25 46.5876 -12.25 Q48.322 -12.25 49.3533 -11.1406 Q50.3845 -10.0312 50.4158 -7.2031 L50.4158 -5.1562 ZM48.8689 -7.2656 Q48.8689 -9.3125 48.2908 -10.1562 Q47.7126 -11 46.5876 -11 Q45.5095 -11 44.9236 -10.1797 Q44.3376 -9.3594 44.322 -7.375 L44.322 -4.9219 Q44.322 -2.8906 44.9158 -1.9922 Q45.5095 -1.0938 46.6033 -1.0938 Q47.7283 -1.0938 48.2986 -1.9766 Q48.8689 -2.8594 48.8689 -4.8438 L48.8689 -7.2656 ZM52.4564 -0.8125 Q52.4564 -1.2031 52.6986 -1.4766 Q52.9408 -1.75 53.4017 -1.75 Q53.8627 -1.75 54.1127 -1.4766 Q54.3627 -1.2031 54.3627 -0.8125 Q54.3627 -0.4375 54.1127 -0.1719 Q53.8627 0.0938 53.4017 0.0938 Q52.9408 0.0938 52.6986 -0.1719 Q52.4564 -0.4375 52.4564 -0.8125 ZM64.5999 -1.2656 L64.5999 0 L56.6936 0 L56.6936 -1.1094 L60.7874 -5.6719 Q61.803 -6.8125 62.1546 -7.4844 Q62.5061 -8.1562 62.5061 -8.8438 Q62.5061 -9.7344 61.9593 -10.3594 Q61.4124 -10.9844 60.3968 -10.9844 Q59.1936 -10.9844 58.5921 -10.2969 Q57.9905 -9.6094 57.9905 -8.5312 L56.4593 -8.5312 Q56.4593 -10.0625 57.4671 -11.1562 Q58.4749 -12.25 60.3968 -12.25 Q62.1155 -12.25 63.0843 -11.3594 Q64.053 -10.4688 64.053 -9.0156 Q64.053 -7.9531 63.3968 -6.8828 Q62.7405 -5.8125 61.7718 -4.7656 L58.5374 -1.2656 L64.5999 -1.2656 Z"
         id="path63" />
    </g>
    <g
       style="stroke-linecap:butt; fill:rgb(237,177,32); text-rendering:geometricPrecision; image-rendering:optimizeQuality; color-rendering:optimizeQuality; stroke-linejoin:round; stroke:rgb(237,177,32); color-interpolation:linearRGB; stroke-width:2.6667;"
       id="g65">
      <line
         y2="269.2906"
         style="fill:none;"
         x1="376"
         x2="416"
         y1="269.2906"
         id="line64" />
    </g>
    <g
       transform="translate(419,297)"
       style="font-size:16.8px; text-rendering:geometricPrecision; color-rendering:optimizeQuality; image-rendering:optimizeQuality; font-family:'mwb_cmmi10'; color-interpolation:linearRGB;"
       id="g66">
      <path
         style="stroke:none;"
         d="M2.7656 2.6406 Q2.7969 2.4531 3 2.4531 Q3.0156 2.4531 3.3203 2.6172 Q3.625 2.7812 3.9922 2.9141 Q4.3594 3.0469 4.7188 3.0469 Q5.0312 3.0469 5.25 2.7734 Q5.4688 2.5 5.4688 2.1875 Q5.4688 1.75 5 1.5625 L2.1094 0.4375 Q1.3594 0.1562 0.875 -0.4219 Q0.3906 -1 0.3906 -1.7344 Q0.3906 -2.3906 0.7422 -3.1016 Q1.0938 -3.8125 1.6406 -4.3906 Q2.1875 -4.9688 2.8125 -5.3281 Q2.3125 -5.625 2.0312 -6.0938 Q1.75 -6.5625 1.75 -7.125 Q1.75 -7.7188 1.9922 -8.2344 Q2.2344 -8.75 2.6641 -9.1719 Q3.0938 -9.5938 3.6172 -9.8906 Q4.1406 -10.1875 4.6719 -10.3281 Q4.5938 -10.6875 4.5938 -10.9688 Q4.5938 -11.8906 4.9531 -11.8906 Q5.0312 -11.8906 5.1016 -11.8203 Q5.1719 -11.75 5.1719 -11.6562 Q5.1719 -11.5781 5.125 -11.2969 Q5.0781 -11.0156 5.0781 -10.9531 Q5.0781 -10.6562 5.1562 -10.4375 Q5.5938 -10.5312 6 -10.5312 Q7.5625 -10.5312 7.5625 -10.0469 Q7.5625 -9.4688 5.8281 -9.4688 Q5.2969 -9.4688 4.9688 -9.8281 Q4.4688 -9.5781 4.0547 -9.125 Q3.6406 -8.6719 3.4062 -8.1094 Q3.1719 -7.5469 3.1719 -6.9688 Q3.1719 -6.1719 3.6406 -5.6875 Q4.2344 -5.9062 4.8438 -5.9062 Q6.4062 -5.9062 6.4062 -5.4219 Q6.4062 -4.8438 4.6719 -4.8438 Q3.9688 -4.8438 3.3438 -5.0625 Q2.5938 -4.6562 1.9609 -3.8281 Q1.3281 -3 1.3281 -2.2188 Q1.3281 -1.7344 1.6875 -1.3516 Q2.0469 -0.9688 2.5781 -0.75 L5.5938 0.4219 Q5.9844 0.5781 6.2266 0.9062 Q6.4688 1.2344 6.4688 1.6562 Q6.4688 2.3438 5.9375 2.9141 Q5.4062 3.4844 4.7031 3.4844 Q4.4844 3.4844 4 3.3672 Q3.5156 3.25 3.1406 3.0625 Q2.7656 2.875 2.7656 2.6406 ZM4.1562 -5.375 Q4.375 -5.2812 4.7031 -5.2812 Q5.5312 -5.2812 5.8906 -5.3906 Q5.5625 -5.4531 4.8281 -5.4531 Q4.5469 -5.4531 4.1562 -5.375 ZM5.4531 -10.0156 Q5.6094 -9.9062 5.875 -9.9062 Q6.6875 -9.9062 7.0469 -10.0156 L5.4531 -10.0156 Z"
         id="path65" />
    </g>
    <g
       transform="translate(427,297)"
       style="font-size:16.8px; text-rendering:geometricPrecision; color-rendering:optimizeQuality; image-rendering:optimizeQuality; font-family:'SansSerif'; color-interpolation:linearRGB;"
       id="g67">
      <path
         style="stroke:none;"
         d="M10.6782 -12.0938 L5.6469 1.0312 L4.3188 1.0312 L9.3657 -12.0938 L10.6782 -12.0938 ZM23.9834 -1.2969 L23.9834 0 L16.6552 0 L16.6552 -12.0938 L18.249 -12.0938 L18.249 -1.2969 L23.9834 -1.2969 ZM36.637 -8.0938 L36.637 -6.75 L29.7151 -6.75 L29.7151 -8.0938 L36.637 -8.0938 ZM36.637 -4.6562 L36.637 -3.3125 L29.7151 -3.3125 L29.7151 -4.6562 L36.637 -4.6562 ZM50.4158 -5.1562 Q50.4158 -2.1875 49.3923 -1.0078 Q48.3689 0.1719 46.6033 0.1719 Q44.9001 0.1719 43.8533 -0.9766 Q42.8064 -2.125 42.7751 -4.9688 L42.7751 -7 Q42.7751 -9.9688 43.8142 -11.1094 Q44.8533 -12.25 46.5876 -12.25 Q48.322 -12.25 49.3533 -11.1406 Q50.3845 -10.0312 50.4158 -7.2031 L50.4158 -5.1562 ZM48.8689 -7.2656 Q48.8689 -9.3125 48.2908 -10.1562 Q47.7126 -11 46.5876 -11 Q45.5095 -11 44.9236 -10.1797 Q44.3376 -9.3594 44.322 -7.375 L44.322 -4.9219 Q44.322 -2.8906 44.9158 -1.9922 Q45.5095 -1.0938 46.6033 -1.0938 Q47.7283 -1.0938 48.2986 -1.9766 Q48.8689 -2.8594 48.8689 -4.8438 L48.8689 -7.2656 ZM52.4564 -0.8125 Q52.4564 -1.2031 52.6986 -1.4766 Q52.9408 -1.75 53.4017 -1.75 Q53.8627 -1.75 54.1127 -1.4766 Q54.3627 -1.2031 54.3627 -0.8125 Q54.3627 -0.4375 54.1127 -0.1719 Q53.8627 0.0938 53.4017 0.0938 Q52.9408 0.0938 52.6986 -0.1719 Q52.4564 -0.4375 52.4564 -0.8125 ZM58.928 -5.5312 L58.928 -6.7969 L60.053 -6.7969 Q61.2405 -6.8125 61.8186 -7.3984 Q62.3968 -7.9844 62.3968 -8.8594 Q62.3968 -10.9844 60.2874 -10.9844 Q59.3186 -10.9844 58.7093 -10.4297 Q58.0999 -9.875 58.0999 -8.9219 L56.5686 -8.9219 Q56.5686 -10.3125 57.5921 -11.2812 Q58.6155 -12.25 60.2874 -12.25 Q61.928 -12.25 62.9358 -11.3828 Q63.9436 -10.5156 63.9436 -8.8281 Q63.9436 -8.1562 63.4905 -7.3906 Q63.0374 -6.625 62.0374 -6.2031 Q63.2561 -5.8125 63.6936 -5 Q64.1311 -4.1875 64.1311 -3.375 Q64.1311 -1.6719 63.0374 -0.75 Q61.9436 0.1719 60.303 0.1719 Q58.7249 0.1719 57.5921 -0.7031 Q56.4593 -1.5781 56.4593 -3.2031 L58.0061 -3.2031 Q58.0061 -2.2344 58.6233 -1.6641 Q59.2405 -1.0938 60.303 -1.0938 Q61.3499 -1.0938 61.9671 -1.6484 Q62.5843 -2.2031 62.5843 -3.3359 Q62.5843 -4.4688 61.889 -5 Q61.1936 -5.5312 60.0218 -5.5312 L58.928 -5.5312 Z"
         id="path66" />
    </g>
    <g
       style="stroke-linecap:butt; fill:rgb(126,47,142); text-rendering:geometricPrecision; image-rendering:optimizeQuality; color-rendering:optimizeQuality; stroke-linejoin:round; stroke:rgb(126,47,142); color-interpolation:linearRGB; stroke-width:2.6667;"
       id="g68">
      <line
         y2="290.7094"
         style="fill:none;"
         x1="376"
         x2="416"
         y1="290.7094"
         id="line67" />
    </g>
    <g
       transform="translate(419,318)"
       style="font-size:16.8px; text-rendering:geometricPrecision; color-rendering:optimizeQuality; image-rendering:optimizeQuality; font-family:'mwb_cmmi10'; color-interpolation:linearRGB;"
       id="g69">
      <path
         style="stroke:none;"
         d="M2.7656 2.6406 Q2.7969 2.4531 3 2.4531 Q3.0156 2.4531 3.3203 2.6172 Q3.625 2.7812 3.9922 2.9141 Q4.3594 3.0469 4.7188 3.0469 Q5.0312 3.0469 5.25 2.7734 Q5.4688 2.5 5.4688 2.1875 Q5.4688 1.75 5 1.5625 L2.1094 0.4375 Q1.3594 0.1562 0.875 -0.4219 Q0.3906 -1 0.3906 -1.7344 Q0.3906 -2.3906 0.7422 -3.1016 Q1.0938 -3.8125 1.6406 -4.3906 Q2.1875 -4.9688 2.8125 -5.3281 Q2.3125 -5.625 2.0312 -6.0938 Q1.75 -6.5625 1.75 -7.125 Q1.75 -7.7188 1.9922 -8.2344 Q2.2344 -8.75 2.6641 -9.1719 Q3.0938 -9.5938 3.6172 -9.8906 Q4.1406 -10.1875 4.6719 -10.3281 Q4.5938 -10.6875 4.5938 -10.9688 Q4.5938 -11.8906 4.9531 -11.8906 Q5.0312 -11.8906 5.1016 -11.8203 Q5.1719 -11.75 5.1719 -11.6562 Q5.1719 -11.5781 5.125 -11.2969 Q5.0781 -11.0156 5.0781 -10.9531 Q5.0781 -10.6562 5.1562 -10.4375 Q5.5938 -10.5312 6 -10.5312 Q7.5625 -10.5312 7.5625 -10.0469 Q7.5625 -9.4688 5.8281 -9.4688 Q5.2969 -9.4688 4.9688 -9.8281 Q4.4688 -9.5781 4.0547 -9.125 Q3.6406 -8.6719 3.4062 -8.1094 Q3.1719 -7.5469 3.1719 -6.9688 Q3.1719 -6.1719 3.6406 -5.6875 Q4.2344 -5.9062 4.8438 -5.9062 Q6.4062 -5.9062 6.4062 -5.4219 Q6.4062 -4.8438 4.6719 -4.8438 Q3.9688 -4.8438 3.3438 -5.0625 Q2.5938 -4.6562 1.9609 -3.8281 Q1.3281 -3 1.3281 -2.2188 Q1.3281 -1.7344 1.6875 -1.3516 Q2.0469 -0.9688 2.5781 -0.75 L5.5938 0.4219 Q5.9844 0.5781 6.2266 0.9062 Q6.4688 1.2344 6.4688 1.6562 Q6.4688 2.3438 5.9375 2.9141 Q5.4062 3.4844 4.7031 3.4844 Q4.4844 3.4844 4 3.3672 Q3.5156 3.25 3.1406 3.0625 Q2.7656 2.875 2.7656 2.6406 ZM4.1562 -5.375 Q4.375 -5.2812 4.7031 -5.2812 Q5.5312 -5.2812 5.8906 -5.3906 Q5.5625 -5.4531 4.8281 -5.4531 Q4.5469 -5.4531 4.1562 -5.375 ZM5.4531 -10.0156 Q5.6094 -9.9062 5.875 -9.9062 Q6.6875 -9.9062 7.0469 -10.0156 L5.4531 -10.0156 Z"
         id="path68" />
    </g>
    <g
       transform="translate(427,318)"
       style="font-size:16.8px; text-rendering:geometricPrecision; color-rendering:optimizeQuality; image-rendering:optimizeQuality; font-family:'SansSerif'; color-interpolation:linearRGB;"
       id="g70">
      <path
         style="stroke:none;"
         d="M10.6782 -12.0938 L5.6469 1.0312 L4.3188 1.0312 L9.3657 -12.0938 L10.6782 -12.0938 ZM23.9834 -1.2969 L23.9834 0 L16.6552 0 L16.6552 -12.0938 L18.249 -12.0938 L18.249 -1.2969 L23.9834 -1.2969 ZM36.637 -8.0938 L36.637 -6.75 L29.7151 -6.75 L29.7151 -8.0938 L36.637 -8.0938 ZM36.637 -4.6562 L36.637 -3.3125 L29.7151 -3.3125 L29.7151 -4.6562 L36.637 -4.6562 ZM50.4158 -5.1562 Q50.4158 -2.1875 49.3923 -1.0078 Q48.3689 0.1719 46.6033 0.1719 Q44.9001 0.1719 43.8533 -0.9766 Q42.8064 -2.125 42.7751 -4.9688 L42.7751 -7 Q42.7751 -9.9688 43.8142 -11.1094 Q44.8533 -12.25 46.5876 -12.25 Q48.322 -12.25 49.3533 -11.1406 Q50.3845 -10.0312 50.4158 -7.2031 L50.4158 -5.1562 ZM48.8689 -7.2656 Q48.8689 -9.3125 48.2908 -10.1562 Q47.7126 -11 46.5876 -11 Q45.5095 -11 44.9236 -10.1797 Q44.3376 -9.3594 44.322 -7.375 L44.322 -4.9219 Q44.322 -2.8906 44.9158 -1.9922 Q45.5095 -1.0938 46.6033 -1.0938 Q47.7283 -1.0938 48.2986 -1.9766 Q48.8689 -2.8594 48.8689 -4.8438 L48.8689 -7.2656 ZM52.4564 -0.8125 Q52.4564 -1.2031 52.6986 -1.4766 Q52.9408 -1.75 53.4017 -1.75 Q53.8627 -1.75 54.1127 -1.4766 Q54.3627 -1.2031 54.3627 -0.8125 Q54.3627 -0.4375 54.1127 -0.1719 Q53.8627 0.0938 53.4017 0.0938 Q52.9408 0.0938 52.6986 -0.1719 Q52.4564 -0.4375 52.4564 -0.8125 ZM56.1155 -3.7031 L61.5374 -12.0938 L63.1624 -12.0938 L63.1624 -4.0625 L64.8499 -4.0625 L64.8499 -2.8125 L63.1624 -2.8125 L63.1624 0 L61.6311 0 L61.6311 -2.8125 L56.1155 -2.8125 L56.1155 -3.7031 ZM57.8655 -4.0625 L61.6311 -4.0625 L61.6311 -10 L61.4436 -9.6562 L57.8655 -4.0625 Z"
         id="path69" />
    </g>
    <g
       style="stroke-linecap:butt; fill:rgb(119,172,48); text-rendering:geometricPrecision; image-rendering:optimizeQuality; color-rendering:optimizeQuality; stroke-linejoin:round; stroke:rgb(119,172,48); color-interpolation:linearRGB; stroke-width:2.6667;"
       id="g71">
      <line
         y2="312.1283"
         style="fill:none;"
         x1="376"
         x2="416"
         y1="312.1283"
         id="line70" />
    </g>
    <g
       transform="translate(419,340)"
       style="font-size:16.8px; text-rendering:geometricPrecision; color-rendering:optimizeQuality; image-rendering:optimizeQuality; font-family:'mwb_cmmi10'; color-interpolation:linearRGB;"
       id="g72">
      <path
         style="stroke:none;"
         d="M2.7656 2.6406 Q2.7969 2.4531 3 2.4531 Q3.0156 2.4531 3.3203 2.6172 Q3.625 2.7812 3.9922 2.9141 Q4.3594 3.0469 4.7188 3.0469 Q5.0312 3.0469 5.25 2.7734 Q5.4688 2.5 5.4688 2.1875 Q5.4688 1.75 5 1.5625 L2.1094 0.4375 Q1.3594 0.1562 0.875 -0.4219 Q0.3906 -1 0.3906 -1.7344 Q0.3906 -2.3906 0.7422 -3.1016 Q1.0938 -3.8125 1.6406 -4.3906 Q2.1875 -4.9688 2.8125 -5.3281 Q2.3125 -5.625 2.0312 -6.0938 Q1.75 -6.5625 1.75 -7.125 Q1.75 -7.7188 1.9922 -8.2344 Q2.2344 -8.75 2.6641 -9.1719 Q3.0938 -9.5938 3.6172 -9.8906 Q4.1406 -10.1875 4.6719 -10.3281 Q4.5938 -10.6875 4.5938 -10.9688 Q4.5938 -11.8906 4.9531 -11.8906 Q5.0312 -11.8906 5.1016 -11.8203 Q5.1719 -11.75 5.1719 -11.6562 Q5.1719 -11.5781 5.125 -11.2969 Q5.0781 -11.0156 5.0781 -10.9531 Q5.0781 -10.6562 5.1562 -10.4375 Q5.5938 -10.5312 6 -10.5312 Q7.5625 -10.5312 7.5625 -10.0469 Q7.5625 -9.4688 5.8281 -9.4688 Q5.2969 -9.4688 4.9688 -9.8281 Q4.4688 -9.5781 4.0547 -9.125 Q3.6406 -8.6719 3.4062 -8.1094 Q3.1719 -7.5469 3.1719 -6.9688 Q3.1719 -6.1719 3.6406 -5.6875 Q4.2344 -5.9062 4.8438 -5.9062 Q6.4062 -5.9062 6.4062 -5.4219 Q6.4062 -4.8438 4.6719 -4.8438 Q3.9688 -4.8438 3.3438 -5.0625 Q2.5938 -4.6562 1.9609 -3.8281 Q1.3281 -3 1.3281 -2.2188 Q1.3281 -1.7344 1.6875 -1.3516 Q2.0469 -0.9688 2.5781 -0.75 L5.5938 0.4219 Q5.9844 0.5781 6.2266 0.9062 Q6.4688 1.2344 6.4688 1.6562 Q6.4688 2.3438 5.9375 2.9141 Q5.4062 3.4844 4.7031 3.4844 Q4.4844 3.4844 4 3.3672 Q3.5156 3.25 3.1406 3.0625 Q2.7656 2.875 2.7656 2.6406 ZM4.1562 -5.375 Q4.375 -5.2812 4.7031 -5.2812 Q5.5312 -5.2812 5.8906 -5.3906 Q5.5625 -5.4531 4.8281 -5.4531 Q4.5469 -5.4531 4.1562 -5.375 ZM5.4531 -10.0156 Q5.6094 -9.9062 5.875 -9.9062 Q6.6875 -9.9062 7.0469 -10.0156 L5.4531 -10.0156 Z"
         id="path71" />
    </g>
    <g
       transform="translate(427,340)"
       style="font-size:16.8px; text-rendering:geometricPrecision; color-rendering:optimizeQuality; image-rendering:optimizeQuality; font-family:'SansSerif'; color-interpolation:linearRGB;"
       id="g73">
      <path
         style="stroke:none;"
         d="M10.6782 -12.0938 L5.6469 1.0312 L4.3188 1.0312 L9.3657 -12.0938 L10.6782 -12.0938 ZM23.9834 -1.2969 L23.9834 0 L16.6552 0 L16.6552 -12.0938 L18.249 -12.0938 L18.249 -1.2969 L23.9834 -1.2969 ZM36.637 -8.0938 L36.637 -6.75 L29.7151 -6.75 L29.7151 -8.0938 L36.637 -8.0938 ZM36.637 -4.6562 L36.637 -3.3125 L29.7151 -3.3125 L29.7151 -4.6562 L36.637 -4.6562 ZM50.4158 -5.1562 Q50.4158 -2.1875 49.3923 -1.0078 Q48.3689 0.1719 46.6033 0.1719 Q44.9001 0.1719 43.8533 -0.9766 Q42.8064 -2.125 42.7751 -4.9688 L42.7751 -7 Q42.7751 -9.9688 43.8142 -11.1094 Q44.8533 -12.25 46.5876 -12.25 Q48.322 -12.25 49.3533 -11.1406 Q50.3845 -10.0312 50.4158 -7.2031 L50.4158 -5.1562 ZM48.8689 -7.2656 Q48.8689 -9.3125 48.2908 -10.1562 Q47.7126 -11 46.5876 -11 Q45.5095 -11 44.9236 -10.1797 Q44.3376 -9.3594 44.322 -7.375 L44.322 -4.9219 Q44.322 -2.8906 44.9158 -1.9922 Q45.5095 -1.0938 46.6033 -1.0938 Q47.7283 -1.0938 48.2986 -1.9766 Q48.8689 -2.8594 48.8689 -4.8438 L48.8689 -7.2656 ZM52.4564 -0.8125 Q52.4564 -1.2031 52.6986 -1.4766 Q52.9408 -1.75 53.4017 -1.75 Q53.8627 -1.75 54.1127 -1.4766 Q54.3627 -1.2031 54.3627 -0.8125 Q54.3627 -0.4375 54.1127 -0.1719 Q53.8627 0.0938 53.4017 0.0938 Q52.9408 0.0938 52.6986 -0.1719 Q52.4564 -0.4375 52.4564 -0.8125 ZM58.6311 -5.75 L57.3968 -6.0625 L58.0061 -12.0938 L64.2093 -12.0938 L64.2093 -10.6719 L59.303 -10.6719 L58.9436 -7.375 Q59.8499 -7.9062 60.9593 -7.9062 Q62.6311 -7.9062 63.5921 -6.8047 Q64.553 -5.7031 64.553 -3.8594 Q64.553 -2.1094 63.6077 -0.9688 Q62.6624 0.1719 60.7405 0.1719 Q59.2718 0.1719 58.1936 -0.6562 Q57.1155 -1.4844 56.9593 -3.1719 L58.4124 -3.1719 Q58.7093 -1.0938 60.7405 -1.0938 Q61.8186 -1.0938 62.4202 -1.8359 Q63.0218 -2.5781 63.0218 -3.8281 Q63.0218 -4.9688 62.389 -5.75 Q61.7561 -6.5312 60.5999 -6.5312 Q59.8343 -6.5312 59.4358 -6.3203 Q59.0374 -6.1094 58.6311 -5.75 Z"
         id="path72" />
    </g>
    <g
       style="stroke-linecap:butt; fill:rgb(77,190,238); text-rendering:geometricPrecision; image-rendering:optimizeQuality; color-rendering:optimizeQuality; stroke-linejoin:round; stroke:rgb(77,190,238); color-interpolation:linearRGB; stroke-width:2.6667;"
       id="g74">
      <line
         y2="333.5472"
         style="fill:none;"
         x1="376"
         x2="416"
         y1="333.5472"
         id="line73" />
    </g>
    <g
       style="stroke-linecap:butt; fill:rgb(38,38,38); text-rendering:geometricPrecision; color-rendering:optimizeQuality; image-rendering:optimizeQuality; stroke:rgb(38,38,38); color-interpolation:linearRGB; stroke-width:0.6667;"
       id="g75">
      <path
         d="M372 346 L372 214 L497 214 L497 346 Z"
         style="fill:none; fill-rule:evenodd;"
         id="path74" />
    </g>
  </g>
  <g
     transform="translate(251.2859,28.5526)"
     style="font-style:normal;font-weight:bold;font-size:20.5333px;font-family:SansSerif;color-interpolation:linearRGB;fill:#000000;fill-opacity:1;stroke:#000000;stroke-width:1;stroke-linecap:square;stroke-linejoin:miter;stroke-miterlimit:10;stroke-dasharray:none;stroke-dashoffset:0;stroke-opacity:1;color-rendering:optimizeQuality;image-rendering:optimizeQuality;shape-rendering:auto;text-rendering:geometricPrecision"
     id="g42">
    <path
       style="stroke:none"
       d="M 26.1515,-8.4844 V -6 h -9.6094 v -14.9375 h 3.0938 v 12.4531 z m 10.7584,-7.5781 v 2.4063 H 27.738 v -2.4063 z m 0,4.4375 v 2.4062 H 27.738 v -2.4062 z m 9.3899,-9.3281 V -6 h -2.9687 v -11.4375 l -3.5313,1.0937 v -2.3906 l 6.1719,-2.2187 z m 14.6232,8.7656 c 0,2.25 -0.460933,3.8776 -1.3828,4.8828 -0.921933,1.0052 -2.1355,1.5078 -3.6407,1.5078 -1.5052,0 -2.723933,-0.5026 -3.6562,-1.5078 -0.932333,-1.0052 -1.3985,-2.6328 -1.3985,-4.8828 v -2.5937 c 0,-2.2396 0.463567,-3.8594 1.3907,-4.8594 0.927067,-1 2.1406,-1.5 3.6406,-1.5 1.5,0 2.713533,0.4974 3.6406,1.4922 0.927067,0.9948 1.395833,2.601567 1.4063,4.8203 z m -2.9688,-3 c 0,-1.322933 -0.179667,-2.2474 -0.539,-2.7734 -0.3594,-0.526067 -0.872433,-0.7891 -1.5391,-0.7891 -0.645867,0 -1.151067,0.2578 -1.5156,0.7734 -0.3646,0.515667 -0.5469,1.419333 -0.5469,2.711 v 3.4844 c 0,1.333333 0.1823,2.2656 0.5469,2.7968 0.364533,0.5312667 0.880133,0.7969 1.5468,0.7969 0.645867,0 1.1485,-0.2604333 1.5079,-0.7813 0.359333,-0.5208 0.539,-1.432233 0.539,-2.7343 z"
       id="path41"
       sodipodi:nodetypes="cccccccccccccccccccccccccssssssssscssssssscssss" />
  </g>
</svg>
